<svg id="Layer_1" data-name="Layer 1" xmlns="http://www.w3.org/2000/svg" viewBox="0 0 1920 291"><defs><style>.cls-1,.cls-2{fill:#d89867;}.cls-1,.cls-3,.cls-5{fill-rule:evenodd;}.cls-3,.cls-4{fill:#3f0800;}.cls-5,.cls-6{fill:#ffe6c2;}</style></defs><title>city</title><path class="cls-1" d="M525.16,132.33c0-43.27,75.72-42.38,75.72,0v150H525.16Z" transform="translate(0 -9)"/><path class="cls-1" d="M560.54,48.18c0-17.56,4.77-17.43,4.77,0V86h-4.77Z" transform="translate(0 -9)"/><rect class="cls-2" x="395.92" y="156.46" width="60.6" height="113.09"/><rect class="cls-2" x="472.36" y="53.58" width="35.14" height="215.97"/><path class="cls-1" d="M191.88,177.42c0-46.91,52.22-46.57,52.22,0V278.55H191.88Z" transform="translate(0 -9)"/><path class="cls-1" d="M553.15,87.85c0-17.56,19.54-17.43,19.54,0v37.84H553.15Z" transform="translate(0 -9)"/><rect class="cls-2" x="0.27" y="184.31" width="56.84" height="85.23"/><rect class="cls-2" x="0.27" y="226.93" width="111.65" height="42.62"/><path class="cls-3" d="M413.43,273.31h11.18v-116h2.09V120.94l-5.31-2.55V107.75a63.24,63.24,0,0,1-8-11.59v25.57c3.25.85,6.13,5,6.73,10,.66,5.6-1.81,10.15-5.52,10.15a5,5,0,0,1-1.21-.16v131.6Zm0-140.08v-3.14l.26.85,4.9-3.13-4.65,4,.65,2.21-1,.07ZM380.85,273.31h32.58V141.71c-3.25-.85-6.13-5-6.72-10-.67-5.61,1.8-10.15,5.51-10.15a4.52,4.52,0,0,1,1.21.16V96.16c-.91-1.58-2.06-3.53-3.8-6.26v-12c6.67.86-1.41-6.13-5.15-11.33s-7.33-17.4-7.23-25.5v-.22a5.44,5.44,0,0,0-.83-3.19,2.35,2.35,0,0,0,.83-1.89c0-1.19-.7-2.15-1.57-2.15s-1.57,1-1.57,2.15a2.35,2.35,0,0,0,.83,1.89,5.44,5.44,0,0,0-.83,3.19c0,.1,0,.19,0,.29.12,7.93-1.89,13.55-7,24.4-2.77,5.9-5.44,9.27-6.29,11v1.36a6.27,6.27,0,0,0,3,0v12c-1.26,2-2.21,3.54-3,4.86v27.15a8.47,8.47,0,0,1,1.13-.08c5.22,0,9,4.67,8.34,10.43-.57,5.35-4.7,9.75-9.47,10.36V273.31Zm32.58-143.22v3.14l-.14-.84-1.38,1.22-.68-1,1.85-1.2L412,125.44l1.4,4.65Zm-32.58,4.54V126.1l.44,5.45,6.93-2.74-6.87,3.63.15,2.19Zm-12,138.68h12V142.62a10.36,10.36,0,0,1-1.12.07c-5.23,0-9-4.67-8.34-10.43.57-5.34,4.69-9.75,9.46-10.35V94.76c-3,5-3.36,6.39-8.77,13V119.2l-5.31,1.74v36.33h2.08v116Zm12-196.79c-.34.71-.38,1.14,0,1.36V76.52Zm0,49.65v8.46h-.59l.14-1.69-2,1.1-.54-1,2.61-1.05Z" transform="translate(0 -9)"/><polygon class="cls-3" points="241.69 265.49 254.14 265.49 254.14 110.14 257.76 110.14 257.76 95.57 251.73 95.57 251.73 83.23 254.54 83.23 254.54 76.14 251.33 76.14 251.33 69.41 244.5 69.41 244.5 76.14 241.28 76.14 241.28 83.23 244.1 83.23 244.1 95.57 238.07 95.57 238.07 110.14 241.69 110.14 241.69 265.49"/><path class="cls-3" d="M496.43,272.62h44.33v-174h-1.15v-13h-1.73L536.16,73l-1.73,12.58H532.7v13h-1.15v11.23h-.75a10.78,10.78,0,0,0-2.53-6.92,8.45,8.45,0,0,0,.19-1.75,9.42,9.42,0,0,0-8.31-9.06L518.6,80.83,517,92.15a9.41,9.41,0,0,0-8.3,9.06,8.45,8.45,0,0,0,.18,1.75,10.78,10.78,0,0,0-2.53,6.92h-.75V98.65h-1.15v-13h-1.72L501,73l-1.73,12.58h-1.73v13h-1.15v174Z" transform="translate(0 -9)"/><rect class="cls-4" x="0.38" y="253.1" width="643.91" height="37.9"/><path class="cls-3" d="M441.63,266.94h41.63v-82c0-93.71-41.63-97.46-41.63,0Z" transform="translate(0 -9)"/><path class="cls-3" d="M151,263.74H101.14V162.94l1.24-1v-5.05l2.1-1.65v-6.21a.62.62,0,0,1,.64-.6h0a.62.62,0,0,1,.63.6v6.2l2.12,1.66V162l1.24,1v.52L121.26,154v-9.12l1.49-1.17v-6.07l2.47-1.93v-5.93A.76.76,0,0,1,126,129h.08a.76.76,0,0,1,.79.74v5.93l2.47,1.93v6.07l1.49,1.17V154L143,163.46v-.52l1.24-1v-5.05l2.11-1.66v-6.2a.62.62,0,0,1,.64-.6h0a.62.62,0,0,1,.64.6v6.21l2.1,1.65V162l1.24,1v100.8Z" transform="translate(0 -9)"/><path class="cls-3" d="M218.59,264.36H188.26V203l.76-.59v-3.08l1.28-1v-3.78a.37.37,0,0,1,.39-.36h0a.38.38,0,0,1,.39.36v3.77l1.28,1v3.08l.76.59v.31l7.39-5.77V192l.91-.71v-3.7l1.5-1.17V182.8a.47.47,0,0,1,.49-.45h0a.46.46,0,0,1,.48.45v3.61l1.51,1.17v3.7l.91.71v5.55l7.39,5.77V203l.75-.59v-3.08l1.29-1v-3.77a.38.38,0,0,1,.39-.36h0a.37.37,0,0,1,.39.36v3.78l1.28,1v3.08l.75.59v61.36Z" transform="translate(0 -9)"/><polygon class="cls-3" points="198.28 200.82 133.48 179.43 133.48 193.4 198.28 214.8 198.28 200.82"/><path class="cls-4" d="M100.52,194.26a.84.84,0,0,1,1.12-.1.69.69,0,0,1,.11,1h0c-1.59,2-3.52,4.15-5.78,6.47v21.19a45,45,0,0,0,4.55-4.46.84.84,0,0,1,1.12-.11.7.7,0,0,1,.11,1h0A57.11,57.11,0,0,1,96,225.38v30.13a.8.8,0,0,1-1.59,0V226.79c-.85.74-1.75,1.48-2.68,2.23v-2.8c.94-.68,1.83-1.36,2.68-2V203.26c-.85.84-1.75,1.7-2.68,2.57v-3c1-.86,2-1.71,2.85-2.53a.71.71,0,0,1,.13-.12A78,78,0,0,0,100.52,194.26ZM91.7,229c-.86.68-1.76,1.37-2.68,2.06v24.43a.77.77,0,0,1-.8.74.76.76,0,0,1-.79-.74V232.23c-1.62,1.16-3.34,2.31-5.13,3.45v-1.79l.43-.28-.43.24v-1.71q2.7-1.48,5.13-3V209.67c-1.62,1.4-3.34,2.83-5.13,4.26V212l.23-.19-.23.16v-1.84c1.88-1.33,3.66-2.66,5.34-4a.83.83,0,0,1,.15-.11c1.37-1.08,2.68-2.15,3.91-3.2v3c-.86.81-1.76,1.63-2.68,2.45v19.8c.93-.61,1.82-1.24,2.68-1.86Zm-9.4,6.66-.24.14v19.69a.76.76,0,0,1-.79.74.77.77,0,0,1-.8-.74v-18.7c-.87.54-1.76,1.07-2.68,1.6v-1.74c.92-.54,1.81-1.08,2.68-1.62v-.24c-.87.45-1.76.9-2.68,1.34v-1.66c.92-.45,1.81-.91,2.68-1.37V215.36c-.87.67-1.76,1.35-2.68,2V215.5c.92-.69,1.81-1.37,2.68-2.06v-.24c-.87.59-1.76,1.18-2.68,1.77v-1.79c1-.65,2-1.31,2.93-2a.91.91,0,0,1,.16-.11l1.42-1V212l-.24.16v.06l.24-.19v1.94l-.24.18v18.16l.24-.13v1.71l-.24.12V234l.24-.15Zm-4.51,2.73c-.87.5-1.77,1-2.68,1.51v15.59a.8.8,0,0,1-1.59,0V240.78c-.88.47-1.77.93-2.68,1.39v-1.68c.91-.46,1.8-.94,2.68-1.41v-1c-.88.39-1.77.77-2.68,1.14v-1.61c.91-.38,1.8-.77,2.68-1.16v-16c-.88.61-1.77,1.23-2.68,1.84v-1.82c.91-.62,1.8-1.24,2.68-1.86v-1l-2.68,1.56v-1.73c1-.58,2-1.16,3-1.75a.78.78,0,0,1,.15-.1q2-1.2,3.83-2.41V215c-.87.56-1.77,1.12-2.68,1.68v.83c.91-.66,1.81-1.32,2.68-2v1.89c-.87.65-1.77,1.3-2.68,2v16.43c.91-.42,1.81-.85,2.68-1.28v1.66c-.87.42-1.77.85-2.68,1.26v.8c.91-.51,1.81-1,2.68-1.54Zm-7,3.76c-.88.45-1.78.89-2.68,1.33v12a.8.8,0,0,1-1.59,0V244.26l-2.68,1.23v-1.64l2.68-1.25v-1.66l-2.68,1v-1.58c.9-.32,1.8-.65,2.68-1V225.07c-.88.56-1.78,1.11-2.68,1.66V225l2.68-1.68v-1.78c-.88.47-1.78.93-2.68,1.39v-1.68c1-.52,2-1,3-1.57l.15-.09c1.3-.7,2.56-1.4,3.8-2.12v1.73c-.88.5-1.78,1-2.68,1.49v1.61c.91-.6,1.8-1.19,2.68-1.79v1.82c-.88.59-1.78,1.17-2.68,1.76v14.68c.91-.36,1.8-.72,2.68-1.09v1.61c-.88.37-1.78.72-2.68,1.08v1.5c.91-.45,1.8-.89,2.68-1.35Zm-7,3.32-2.69,1.17v8.85a.79.79,0,0,1-1.58,0v-8.19l-.44.18c-.74.31-1.49.61-2.25.91V246.8l1.61-.65,1.08-.44v-2.36l-.5.16-2.19.67v-1.55l1.68-.52,1-.32V229.23c-.89.5-1.78,1-2.69,1.49V229c.91-.5,1.8-1,2.69-1.51V225c-.89.41-1.78.82-2.69,1.22v-1.63c1-.46,2-.93,3-1.41a.52.52,0,0,1,.15-.07c1.27-.61,2.53-1.23,3.76-1.86v1.68l-2.69,1.32v2.36c.91-.53,1.8-1.07,2.69-1.61v1.76l-2.69,1.59v13c.91-.3,1.8-.62,2.69-.93v1.58l-2.69.91V245l2.69-1.18Zm-7,2.92c-.88.34-1.77.69-2.68,1v6.08a.79.79,0,0,1-1.58,0V250c-.89.32-1.78.64-2.69.95V249.4l2.69-1v-3l-2.69.7v-1.53l2.69-.7V233c-.89.45-1.78.9-2.69,1.34v-1.67c.91-.44,1.8-.9,2.69-1.35V228c-.89.37-1.78.72-2.69,1.07v-1.59c1-.41,2.06-.83,3.08-1.25a.94.94,0,0,1,.15-.06l1.9-.81,1.82-.81v1.63l-1.15.51-1.53.65v3.12l.8-.43c.63-.33,1.26-.68,1.88-1v1.7c-.36.21-.73.4-1.09.6l-1.59.84v11.26c.91-.26,1.8-.52,2.68-.79v1.55l-2.68.78v2.88c.91-.34,1.8-.69,2.68-1ZM50,251c-.88.3-1.78.61-2.68.9v3.64a.8.8,0,0,1-1.59,0v-3.13l-2.68.83v-1.55c.9-.27,1.8-.55,2.68-.84V247.1l-2.68.57v-1.51l2.68-.58v-9.25L43,237.52V235.9c.9-.4,1.8-.8,2.68-1.21v-4c-.88.32-1.78.62-2.68.92V230c1-.35,2.08-.71,3.11-1.08a.44.44,0,0,1,.16-.06c1.25-.46,2.47-.92,3.68-1.39v1.59l-2.68,1V234c.9-.43,1.8-.86,2.68-1.3v1.67L47.3,235.6v9.61l2.68-.65v1.53l-2.68.64v3.58L50,249.4ZM43,253.21c-.89.27-1.78.53-2.68.78v1.52a.8.8,0,0,1-1.59,0v-1.08c-.89.25-1.78.48-2.68.72v-1.53l2.68-.72v-4.41l-2.68.46v-1.5c.9-.14,1.79-.3,2.68-.46v-7.68l-2.68,1v-1.59c.9-.34,1.79-.7,2.68-1.06v-4.76l-2.68.77v-1.53l3.15-.94.15,0c1.23-.38,2.45-.77,3.65-1.18v1.56c-.89.3-1.78.59-2.68.87v4.6L43,235.9v1.62c-.89.39-1.78.77-2.68,1.14v8c.9-.17,1.79-.34,2.68-.53v1.51l-2.68.53v4.25l2.68-.79Zm-7,1.94-2.76.69a.82.82,0,0,1-.72.41.88.88,0,0,1-.46-.13l-3,.68v-1.52l2.68-.61v-5.08l-2.68.35v-1.48l2.68-.35v-6.19l-2.68.91v-1.57c.9-.29,1.79-.6,2.68-.92v-5.5l-2.68.64V234c1.06-.25,2.12-.51,3.17-.78l.18,0c1.21-.31,2.41-.64,3.6-1v1.53l-2.68.73v5.33c.89-.33,1.79-.66,2.68-1v1.59c-.89.34-1.79.68-2.68,1v6.52c.89-.13,1.79-.27,2.68-.42V249l-2.68.42v4.92l2.68-.67Zm-6.95,1.65q-3.42.74-7,1.37v-1.5q1.51-.27,3-.57a.73.73,0,0,1-.32-.59v-5.1l-2.68.25v-1.48l2.68-.25v-4.76l-2.68.77v-1.53c.9-.26,1.8-.52,2.68-.79v-6.23c-.88.18-1.78.34-2.68.5v-1.5c1.09-.19,2.17-.4,3.24-.62l.13,0c1.21-.25,2.4-.51,3.59-.78v1.51l-2.69.59v6.06c.9-.28,1.8-.57,2.69-.87v1.57c-.89.29-1.79.58-2.69.85v5.09l2.69-.31v1.48l-2.69.31v5.26a.65.65,0,0,1-.1.36l2.79-.59Zm-7,1.37A193.94,193.94,0,0,1,.85,260.74a.78.78,0,0,1-.85-.69.75.75,0,0,1,.74-.78,190.55,190.55,0,0,0,21.43-2.6v1.5Zm0-7.51-2.68.2v4.65a.76.76,0,0,1-.79.74.77.77,0,0,1-.8-.74V251c-5.53.33-11.25.42-17.13.24a.74.74,0,1,1,0-1.47c5.87.18,11.57.08,17.08-.25v-3.42a148.09,148.09,0,0,1-17,3.18.79.79,0,0,1-.89-.63.74.74,0,0,1,.68-.83,145,145,0,0,0,17.21-3.25v-6.95A140.56,140.56,0,0,1,.81,239.05a.74.74,0,1,1,0-1.47A140.63,140.63,0,0,0,18.5,236l.13,0c1.19-.19,2.37-.38,3.54-.6v1.5c-.89.16-1.78.31-2.68.45v6.79c.9-.23,1.79-.47,2.68-.72v1.53l-2.68.73v3.72l2.68-.21Z" transform="translate(0 -9)"/><rect class="cls-4" x="19.22" y="246.24" width="82.64" height="9.12"/><path class="cls-4" d="M199.29,216.13a.57.57,0,0,1,.77-.07.48.48,0,0,1,.08.71h0c-1.1,1.36-2.44,2.87-4,4.47V235.9a30.92,30.92,0,0,0,3.15-3.09.57.57,0,0,1,.77-.07.48.48,0,0,1,.08.71h0a40.23,40.23,0,0,1-4,4.18v20.84a.55.55,0,0,1-1.1,0V238.62c-.59.51-1.21,1-1.85,1.54v-1.93c.65-.47,1.26-.94,1.85-1.42V222.35c-.59.58-1.21,1.18-1.85,1.78v-2.07c.69-.59,1.35-1.18,2-1.75l.09-.08A54.62,54.62,0,0,0,199.29,216.13Zm-6.1,24c-.6.47-1.22,1-1.86,1.42v16.9a.55.55,0,0,1-1.09,0v-16.1c-1.12.8-2.31,1.6-3.55,2.38v-1.23l.3-.19-.3.16v-1.18c1.25-.69,2.43-1.38,3.55-2.09V226.78c-1.12,1-2.31,2-3.55,2.95v-1.34l.16-.13-.16.11V227.1q2-1.38,3.69-2.75l.1-.08c1-.75,1.86-1.49,2.71-2.21v2.07c-.6.56-1.22,1.12-1.86,1.69v13.7c.65-.43,1.26-.86,1.86-1.29Zm-6.5,4.6-.16.11v13.61a.53.53,0,0,1-.55.51.53.53,0,0,1-.55-.51V245.55c-.61.37-1.23.74-1.86,1.1v-1.2c.64-.37,1.25-.74,1.86-1.12v-.17q-.92.48-1.86.93v-1.15c.64-.31,1.25-.62,1.86-.94V230.71l-1.86,1.41v-1.3c.64-.48,1.25-1,1.86-1.43v-.16l-1.86,1.22v-1.24c.69-.45,1.37-.91,2-1.36a.41.41,0,0,1,.11-.07l1-.68v1.27l-.16.11v0l.16-.13v1.34l-.16.12v12.56l.16-.09v1.18l-.16.09v0l.16-.11Zm-3.12,1.89-1.85,1v10.78a.55.55,0,0,1-1.1,0V248.29c-.61.33-1.23.65-1.85,1v-1.17c.63-.32,1.24-.65,1.85-1v-.67l-1.85.79v-1.11c.63-.26,1.24-.53,1.85-.8V234.24c-.61.43-1.23.85-1.85,1.27v-1.25l1.85-1.29v-.7l-1.85,1.08v-1.19c.69-.4,1.38-.81,2-1.22l.1-.06c.91-.56,1.8-1.11,2.65-1.67v1.24c-.6.39-1.22.77-1.85,1.16v.58l1.85-1.37v1.3c-.6.45-1.22.9-1.85,1.35v11.36c.63-.29,1.25-.59,1.85-.89v1.15c-.6.3-1.22.59-1.85.87v.55c.63-.35,1.25-.7,1.85-1.06Zm-4.8,2.61c-.61.31-1.23.61-1.86.91v8.31a.53.53,0,0,1-.55.51.53.53,0,0,1-.55-.51V250.7l-1.85.85v-1.14l1.85-.85v-1.15l-1.85.67V248l1.85-.68v-9.88c-.61.38-1.22.77-1.85,1.15v-1.22c.63-.38,1.24-.77,1.85-1.16V235l-1.85,1v-1.16c.7-.36,1.39-.72,2.07-1.09l.11-.06c.9-.48,1.77-1,2.63-1.46v1.19c-.61.35-1.23.69-1.86,1v1.11l1.86-1.23v1.25c-.61.41-1.23.82-1.86,1.22v10.15l1.86-.75v1.11c-.61.26-1.23.5-1.86.75v1q.94-.45,1.86-.93ZM174,251.55l-1.85.81v6.12a.53.53,0,0,1-.55.51.53.53,0,0,1-.55-.51v-5.66l-.3.12-1.56.63v-1.11l1.11-.45.75-.31v-1.63l-.35.11-1.51.46v-1.07c.39-.12.78-.23,1.16-.36l.7-.22v-8.68l-1.86,1v-1.18c.63-.34,1.25-.69,1.86-1v-1.76c-.61.29-1.23.57-1.86.85v-1.13l2.11-1a.31.31,0,0,1,.1-.05c.88-.43,1.75-.85,2.6-1.29v1.16l-1.85.91v1.64l1.85-1.12v1.22l-1.85,1.1v8.95L174,248v1.09c-.61.22-1.23.43-1.85.63v1.52l1.85-.82Zm-4.81,2-1.85.71v4.2a.55.55,0,0,1-1.1,0v-3.8l-1.85.66v-1.09l1.85-.66v-2.11c-.61.17-1.23.33-1.85.48v-1.05l1.85-.49V242.9l-1.85.92v-1.15c.62-.3,1.24-.62,1.85-.93v-2.27l-1.85.73v-1.1l2.12-.86.11,0,1.31-.56,1.26-.56v1.13l-.8.35-1,.45v2.15l.55-.29,1.3-.71v1.18l-.76.41-1.09.58v7.78c.62-.17,1.24-.35,1.85-.54v1.07c-.61.19-1.23.37-1.85.54v2l1.85-.72Zm-4.8,1.77-1.86.62v2.52a.53.53,0,0,1-.55.51.53.53,0,0,1-.55-.51v-2.16l-1.85.57v-1.07l1.85-.58v-2.58l-1.85.4V252l1.85-.4v-6.39l-1.85.82v-1.12c.62-.28,1.24-.55,1.85-.84V241.3l-1.85.64v-1.09c.72-.24,1.44-.49,2.15-.75l.11,0q1.29-.47,2.55-1v1.1l-1.86.7v2.67c.63-.29,1.24-.59,1.86-.9v1.15c-.62.3-1.23.6-1.86.89v6.65l1.86-.45V252l-1.86.45v2.47l1.86-.63Zm-4.81,1.55-1.86.54v1.05a.53.53,0,0,1-.54.51.54.54,0,0,1-.56-.51v-.75l-1.85.5v-1.06l1.85-.5v-3.05l-1.85.32v-1l1.85-.32v-5.32l-1.85.73v-1.1l1.85-.73v-3.3l-1.85.54v-1.06l2.18-.65.1,0c.85-.26,1.7-.54,2.53-.82v1.09l-1.86.59v3.18l1.86-.79V246l-1.86.79v5.55l1.86-.37v1.05c-.62.12-1.23.25-1.86.36v2.94l1.86-.54Zm-4.81,1.34-1.91.47a.56.56,0,0,1-.49.29.57.57,0,0,1-.32-.09l-2.09.47v-1.05l1.86-.42v-3.51l-1.86.24v-1l1.86-.24v-4.28l-1.86.63v-1.08l1.86-.64v-3.8l-1.86.44v-1l2.2-.53a.27.27,0,0,1,.12,0l2.49-.67v1.06l-1.85.5v3.69l1.85-.7V248l-1.85.69v4.51l1.85-.29v1l-1.85.29v3.41l1.85-.47Zm-4.81,1.14c-1.57.34-3.18.66-4.8.95v-1l2.07-.39a.52.52,0,0,1-.22-.41V255l-1.85.17v-1l1.85-.17v-3.29l-1.85.53v-1.06l1.85-.54v-4.31l-1.85.34v-1c.75-.13,1.5-.28,2.24-.43l.09,0c.83-.17,1.66-.35,2.47-.54v1c-.61.14-1.23.28-1.85.4v4.2l1.85-.6v1.08l-1.85.59v3.52l1.85-.22v1l-1.85.21v3.64a.45.45,0,0,1-.07.25l1.92-.41Zm-4.8.95a130.79,130.79,0,0,1-14.75,1.77.53.53,0,0,1-.58-.47.52.52,0,0,1,.51-.54,132,132,0,0,0,14.82-1.8v1Zm0-5.2-1.86.14v3.22a.53.53,0,0,1-.55.51.53.53,0,0,1-.55-.51v-3.15q-5.73.36-11.84.17a.52.52,0,0,1-.53-.52.53.53,0,0,1,.56-.49q6.09.18,11.81-.17V252a101.71,101.71,0,0,1-11.75,2.2.55.55,0,0,1-.62-.44.52.52,0,0,1,.47-.57,101.8,101.8,0,0,0,11.9-2.24v-4.81a97.71,97.71,0,0,1-11.81,1,.54.54,0,0,1-.56-.5.52.52,0,0,1,.53-.52A95,95,0,0,0,142.58,245h.09c.82-.13,1.64-.26,2.45-.41v1c-.62.12-1.24.22-1.86.32v4.69l1.86-.5v1.06l-1.86.5v2.57l1.86-.14Z" transform="translate(0 -9)"/><rect class="cls-4" x="136.36" y="249.05" width="57.14" height="6.3"/><path class="cls-3" d="M342.57,142.23a64.39,64.39,0,0,1,12.71,9.19,57.22,57.22,0,0,1,0,85.08,64.43,64.43,0,0,1-12.71,9.2v-1.55c1.18-.67,2.32-1.38,3.45-2.11l-3.45-4.42v-2.74l4.85,6.21a64.33,64.33,0,0,0,6.85-5.52,58.49,58.49,0,0,0,15.18-22.66l-26.88-8.12V203.1L370,211.38a55.21,55.21,0,0,0,0-34.84l-27.41,8.29v-1.7L369.45,175a58.38,58.38,0,0,0-15.18-22.65,61.93,61.93,0,0,0-6.85-5.52l-4.85,6.21V150.3l3.45-4.41c-1.13-.74-2.28-1.45-3.45-2.12Zm-33-8.43a68,68,0,0,1,33,8.43v1.54a66.58,66.58,0,0,0-32.17-8.64v56.35l32.17-41.18v2.75L311.8,192.43l30.77-9.3v1.7L312.34,194l30.23,9.14v1.69L311.8,195.5l30.77,39.38v2.74L310.4,196.44v56.35a66.47,66.47,0,0,0,32.17-8.64v1.55a68.13,68.13,0,0,1-33,8.42,69.46,69.46,0,0,1-18.68-2.54v-1.39a67.23,67.23,0,0,0,17.81,2.6V196.44l-17.81,22.8v-2.75l16.41-21-16.41,4.95v-1.69l15.87-4.8-15.87-4.79v-1.7l16.41,5-16.41-21v-2.75l17.81,22.8V135.13a67.64,67.64,0,0,0-17.81,2.6v-1.39A69.46,69.46,0,0,1,309.53,133.8ZM290.85,251.58a65.75,65.75,0,0,1-27.07-15.08,57.22,57.22,0,0,1,0-85.08,65.75,65.75,0,0,1,27.07-15.08v1.39A65.18,65.18,0,0,0,273,145.89l17.81,22.79v2.75l-19.21-24.59a63.11,63.11,0,0,0-6.85,5.52A58.38,58.38,0,0,0,249.61,175l41.24,12.46v1.7l-41.77-12.63a55.21,55.21,0,0,0,0,34.84l41.77-12.62v1.69l-41.24,12.46a58.49,58.49,0,0,0,15.18,22.66,64.33,64.33,0,0,0,6.85,5.52l19.21-24.6v2.75L273,242a65.15,65.15,0,0,0,17.81,8.15Z" transform="translate(0 -9)"/><path class="cls-3" d="M309.53,178.21c9.36,0,16.94,7,16.94,15.75s-7.58,15.75-16.94,15.75-16.94-7.05-16.94-15.75S300.17,178.21,309.53,178.21Z" transform="translate(0 -9)"/><polygon class="cls-3" points="305 114.12 305.44 114.12 304.44 119.22 304 119.22 305 114.12"/><polygon class="cls-3" points="314.05 114.12 313.62 114.12 314.62 119.22 315.06 119.22 314.05 114.12"/><path class="cls-3" d="M309.53,121.11a5.94,5.94,0,0,1,4.52,2h-9a5.94,5.94,0,0,1,4.52-2Zm5.53,7.11a6,6,0,0,1-11.06,0h4.59v2h1.88v-2Z" transform="translate(0 -9)"/><path class="cls-3" d="M309.53,179.92c8.34,0,15.1,6.29,15.1,14s-6.76,14-15.1,14-15.1-6.28-15.1-14S301.19,179.92,309.53,179.92Z" transform="translate(0 -9)"/><path class="cls-3" d="M309.53,119.2c44.4,0,80.39,33.47,80.39,74.76s-36,74.76-80.39,74.76V270c45.17,0,81.8-34,81.8-76.06s-36.63-76.06-81.8-76.06Zm0,0h0v-1.3h0c-45.17,0-81.8,34-81.8,76.06S264.36,270,309.53,270h0v-1.3h0c-44.4,0-80.39-33.47-80.39-74.76S265.13,119.2,309.53,119.2Z" transform="translate(0 -9)"/><polygon class="cls-3" points="327.91 117.29 328.34 117.29 327.34 122.39 326.91 122.39 327.91 117.29"/><polygon class="cls-3" points="336.96 117.29 336.52 117.29 337.53 122.39 337.96 122.39 336.96 117.29"/><path class="cls-3" d="M332.43,124.28a6,6,0,0,1,4.53,2h-9a6,6,0,0,1,4.52-2Zm5.53,7.11a6,6,0,0,1-11,0h4.58v2h1.89v-2Z" transform="translate(0 -9)"/><polygon class="cls-3" points="347.4 126.58 347.84 126.58 346.83 131.68 346.4 131.68 347.4 126.58"/><polygon class="cls-3" points="356.45 126.58 356.02 126.58 357.02 131.68 357.46 131.68 356.45 126.58"/><path class="cls-3" d="M351.93,133.57a6,6,0,0,1,4.52,2H347.4a6,6,0,0,1,4.53-2Zm5.53,7.11a6,6,0,0,1-11.06,0H351v2h1.88v-2Z" transform="translate(0 -9)"/><polygon class="cls-3" points="363.48 141.76 363.92 141.76 362.92 146.86 362.48 146.86 363.48 141.76"/><polygon class="cls-3" points="372.54 141.76 372.1 141.76 373.1 146.86 373.54 146.86 372.54 141.76"/><path class="cls-3" d="M368,148.75a6,6,0,0,1,4.52,2h-9a6,6,0,0,1,4.53-2Zm5.53,7.11a6,6,0,0,1-11.06,0h4.59v2H369v-2Z" transform="translate(0 -9)"/><polygon class="cls-3" points="373.72 159.21 374.15 159.21 373.15 164.31 372.71 164.31 373.72 159.21"/><polygon class="cls-3" points="382.77 159.21 382.33 159.21 383.34 164.31 383.77 164.31 382.77 159.21"/><path class="cls-3" d="M378.24,166.2a6,6,0,0,1,4.53,2h-9a6,6,0,0,1,4.52-2Zm5.53,7.11a6,6,0,0,1-11.06,0h4.59v2h1.89v-2Z" transform="translate(0 -9)"/><polygon class="cls-3" points="377.62 181.64 378.05 181.64 377.05 186.74 376.61 186.74 377.62 181.64"/><polygon class="cls-3" points="386.67 181.64 386.23 181.64 387.24 186.74 387.67 186.74 386.67 181.64"/><path class="cls-3" d="M382.14,188.63a6,6,0,0,1,4.53,2h-9.05a6,6,0,0,1,4.52-2Zm5.53,7.11a6,6,0,0,1-11.06,0h4.59v2h1.89v-2Z" transform="translate(0 -9)"/><polygon class="cls-3" points="374.45 201.58 374.88 201.58 373.88 206.68 373.45 206.68 374.45 201.58"/><polygon class="cls-3" points="383.5 201.58 383.06 201.58 384.07 206.68 384.5 206.68 383.5 201.58"/><path class="cls-3" d="M379,208.57a6,6,0,0,1,4.53,2h-9.05a6,6,0,0,1,4.52-2Zm5.53,7.11a6,6,0,0,1-11.05,0H378v2h1.89v-2Z" transform="translate(0 -9)"/><polygon class="cls-3" points="363.48 221.07 363.92 221.07 362.92 226.17 362.48 226.17 363.48 221.07"/><polygon class="cls-3" points="372.54 221.07 372.1 221.07 373.1 226.17 373.54 226.17 372.54 221.07"/><path class="cls-3" d="M368,228.06a5.94,5.94,0,0,1,4.52,2h-9a6,6,0,0,1,4.53-2Zm5.53,7.11a6,6,0,0,1-11.06,0h4.59v2H369v-2Z" transform="translate(0 -9)"/><polygon class="cls-3" points="346.43 236.7 346.86 236.7 345.86 241.8 345.42 241.8 346.43 236.7"/><polygon class="cls-3" points="355.48 236.7 355.04 236.7 356.05 241.8 356.48 241.8 355.48 236.7"/><path class="cls-3" d="M351,243.69a6,6,0,0,1,4.53,2h-9.05a6,6,0,0,1,4.52-2Zm5.53,7.11a6,6,0,0,1-11.06,0H350v2h1.89v-2Z" transform="translate(0 -9)"/><polygon class="cls-3" points="326.69 246.22 327.13 246.22 326.12 251.32 325.69 251.32 326.69 246.22"/><polygon class="cls-3" points="335.74 246.22 335.31 246.22 336.31 251.32 336.75 251.32 335.74 246.22"/><path class="cls-3" d="M331.22,253.21a6,6,0,0,1,4.52,2h-9.05a6,6,0,0,1,4.53-2Zm5.52,7.11a6,6,0,0,1-11.05,0h4.58v2h1.89v-2Z" transform="translate(0 -9)"/><polygon class="cls-3" points="291.06 117.29 290.62 117.29 291.63 122.39 292.06 122.39 291.06 117.29"/><polygon class="cls-3" points="282.01 117.29 282.44 117.29 281.44 122.39 281 122.39 282.01 117.29"/><path class="cls-3" d="M286.53,124.28a6,6,0,0,0-4.52,2h9.05a6,6,0,0,0-4.53-2ZM281,131.39a6,6,0,0,0,11.06,0h-4.59v2h-1.88v-2Z" transform="translate(0 -9)"/><polygon class="cls-3" points="271.56 126.58 271.13 126.58 272.13 131.68 272.57 131.68 271.56 126.58"/><polygon class="cls-3" points="262.51 126.58 262.95 126.58 261.94 131.68 261.51 131.68 262.51 126.58"/><path class="cls-3" d="M267,133.57a6,6,0,0,0-4.53,2h9.05a6,6,0,0,0-4.52-2Zm-5.53,7.11a6,6,0,0,0,11.06,0H268v2H266.1v-2Z" transform="translate(0 -9)"/><polygon class="cls-3" points="255.48 141.76 255.05 141.76 256.05 146.86 256.49 146.86 255.48 141.76"/><polygon class="cls-3" points="246.43 141.76 246.87 141.76 245.86 146.86 245.43 146.86 246.43 141.76"/><path class="cls-3" d="M251,148.75a6,6,0,0,0-4.53,2h9a6,6,0,0,0-4.52-2Zm-5.53,7.11a6,6,0,0,0,11.06,0H251.9v2H250v-2Z" transform="translate(0 -9)"/><polygon class="cls-3" points="245.25 159.21 244.81 159.21 245.82 164.31 246.25 164.31 245.25 159.21"/><polygon class="cls-3" points="236.2 159.21 236.63 159.21 235.63 164.31 235.19 164.31 236.2 159.21"/><path class="cls-3" d="M240.72,166.2a6,6,0,0,0-4.52,2h9.05a6,6,0,0,0-4.53-2Zm-5.53,7.11a6,6,0,0,0,11.06,0h-4.58v2h-1.89v-2Z" transform="translate(0 -9)"/><polygon class="cls-3" points="241.35 181.64 240.91 181.64 241.92 186.74 242.35 186.74 241.35 181.64"/><polygon class="cls-3" points="232.3 181.64 232.73 181.64 231.73 186.74 231.3 186.74 232.3 181.64"/><path class="cls-3" d="M236.82,188.63a6,6,0,0,0-4.52,2h9a6,6,0,0,0-4.53-2Zm-5.52,7.11a6,6,0,0,0,11,0h-4.58v2h-1.89v-2Z" transform="translate(0 -9)"/><polygon class="cls-3" points="244.52 201.58 244.08 201.58 245.09 206.68 245.52 206.68 244.52 201.58"/><polygon class="cls-3" points="235.47 201.58 235.9 201.58 234.9 206.68 234.46 206.68 235.47 201.58"/><path class="cls-3" d="M240,208.57a6,6,0,0,0-4.52,2h9.05a6,6,0,0,0-4.53-2Zm-5.53,7.11a6,6,0,0,0,11.06,0h-4.59v2h-1.88v-2Z" transform="translate(0 -9)"/><polygon class="cls-3" points="255.48 221.07 255.05 221.07 256.05 226.17 256.49 226.17 255.48 221.07"/><polygon class="cls-3" points="246.43 221.07 246.87 221.07 245.86 226.17 245.43 226.17 246.43 221.07"/><path class="cls-3" d="M251,228.06a6,6,0,0,0-4.53,2h9a6,6,0,0,0-4.52-2Zm-5.53,7.11a6,6,0,0,0,11.06,0H251.9v2H250v-2Z" transform="translate(0 -9)"/><polygon class="cls-3" points="272.54 236.7 272.11 236.7 273.11 241.8 273.54 241.8 272.54 236.7"/><polygon class="cls-3" points="263.49 236.7 263.92 236.7 262.92 241.8 262.49 241.8 263.49 236.7"/><path class="cls-3" d="M268,243.69a6,6,0,0,0-4.52,2h9.05a6,6,0,0,0-4.53-2Zm-5.52,7.11a6,6,0,0,0,11.05,0H269v2h-1.89v-2Z" transform="translate(0 -9)"/><polygon class="cls-3" points="292.28 246.22 291.84 246.22 292.84 251.32 293.28 251.32 292.28 246.22"/><polygon class="cls-3" points="283.23 246.22 283.66 246.22 282.66 251.32 282.22 251.32 283.23 246.22"/><path class="cls-3" d="M287.75,253.21a6,6,0,0,0-4.53,2h9.06a6,6,0,0,0-4.53-2Zm-5.53,7.11a6,6,0,0,0,11.06,0h-4.59v2h-1.88v-2Z" transform="translate(0 -9)"/><polygon class="cls-3" points="305 249.16 305.44 249.16 304.44 254.26 304 254.26 305 249.16"/><polygon class="cls-3" points="314.05 249.16 313.62 249.16 314.62 254.26 315.06 254.26 314.05 249.16"/><path class="cls-3" d="M309.53,256.16a6,6,0,0,1,4.52,2h-9a6,6,0,0,1,4.52-2Zm5.53,7.1a6,6,0,0,1-11.06,0h4.59v2h1.88v-2Z" transform="translate(0 -9)"/><path class="cls-3" d="M342.51,142.19a62.12,62.12,0,0,1,24.56,24.26,56.21,56.21,0,0,1,4.06,45.9,60.93,60.93,0,0,1-28.62,33.37v-1.54A61.78,61.78,0,0,0,360.35,229l-17.84-12v-2l18.86,12.64a57.45,57.45,0,0,0,8.41-15.78,55.26,55.26,0,0,0,3-17.38l-30.31.1V193l30.3-.1a55.63,55.63,0,0,0-7-25.88,57.07,57.07,0,0,0-4.71-7.2l-18.58,12.65v-2l17.56-11.95a61.38,61.38,0,0,0-17.56-14.83Zm-13.21-5.52a67.55,67.55,0,0,1,13.21,5.52v1.54a66.14,66.14,0,0,0-12.82-5.54L319.6,167.41v-5.28L328,137.7a66.26,66.26,0,0,0-8.44-1.83v-1.35a71.12,71.12,0,0,1,9.7,2.15Zm13.21,109.05c-1.12.62-2.25,1.2-3.4,1.75a68.14,68.14,0,0,1-19.51,5.93v-1.34a65.78,65.78,0,0,0,8.87-2L319.6,225v-5.16l10.52,29.74a67.62,67.62,0,0,0,8.34-3.31q2.07-1,4.05-2.11v1.54Zm0-75.21v2L319.6,188.1v-2l22.91-15.59Zm0,22.53v1.62l-22.91.07v-1.61l22.91-.08Zm0,22v2L319.6,201.71v-2ZM319.6,253.4a69,69,0,0,1-10.29.74v-1.33a67.57,67.57,0,0,0,10.29-.75v1.34ZM309.31,133.78a68.78,68.78,0,0,1,10.29.74v1.35a67.52,67.52,0,0,0-10.29-.76v-1.33Zm10.29,28.35v5.28l-8.43,24.43,8.43-5.74v2l-7.4,5.05,7.4,0v1.61l-7.4,0,7.4,5v2l-8.41-5.64,8.41,23.79V225l-10.06-28.45-.23.67v-6.48l.21.59Zm-10.29,92a68.25,68.25,0,0,1-9.85-.74v-1.34a68.27,68.27,0,0,0,9.85.75v1.33Zm-9.85-119.62a68.5,68.5,0,0,1,9.85-.74v1.33a67.1,67.1,0,0,0-9.85.75v-1.34Zm9.85,56.24v6.48l-9.85,28.55v-5.28l8.43-24.43-8.43,5.74v-2l7.4-5-7.4,0v-1.61l7.4,0-7.4-5v-2l8.41,5.65-8.41-23.8V162.9Zm-9.85,62.64a69.66,69.66,0,0,1-9.7-2.15c-2.17-.65-4.28-1.4-6.32-2.23v-1.45c1.92.8,3.89,1.53,5.93,2.16l10.09-29.22v5.28L291,250.23a69.89,69.89,0,0,0,8.44,1.83v1.34Zm-16-114.49a68.56,68.56,0,0,1,16-4.39v1.34a67.85,67.85,0,0,0-8.88,2l8.88,25.08v5.16l-10.52-29.74c-1.87.6-3.71,1.28-5.5,2v-1.45Zm16,47.3v2l-16-10.74v-2l16,10.74Zm0,7v1.61l-16,.06v-1.62l16-.05Zm0,6.63v2l-16,10.9v-2Zm-16,49.2A62.72,62.72,0,0,1,252,221.47a56.19,56.19,0,0,1-4.06-45.89c5.46-15.82,17.29-28.09,32-35.13,1.15-.54,2.31-1.06,3.49-1.54v1.45c-1,.4-1.9.83-2.84,1.27a62.32,62.32,0,0,0-21.89,17.26l24.73,16.58v2L257.69,160.2A57.59,57.59,0,0,0,249.28,176a55.37,55.37,0,0,0-3,17.39l37.2-.13v1.62l-37.19.12a55.6,55.6,0,0,0,7,25.88,57.07,57.07,0,0,0,4.71,7.2l25.47-17.34v2L259,229.37a62.35,62.35,0,0,0,24.45,18.2Z" transform="translate(0 -9)"/><path class="cls-3" d="M309.53,115.77a1.69,1.69,0,1,0-1.81-1.69A1.76,1.76,0,0,0,309.53,115.77Z" transform="translate(0 -9)"/><path class="cls-3" d="M309.53,275.53a1.69,1.69,0,1,1,1.81-1.69A1.76,1.76,0,0,1,309.53,275.53Z" transform="translate(0 -9)"/><path class="cls-3" d="M397.24,194a1.81,1.81,0,1,1-1.81-1.69A1.76,1.76,0,0,1,397.24,194Z" transform="translate(0 -9)"/><path class="cls-3" d="M221.82,194a1.81,1.81,0,1,1,1.81,1.69A1.76,1.76,0,0,1,221.82,194Z" transform="translate(0 -9)"/><path class="cls-3" d="M338.25,116.89a1.66,1.66,0,0,1,1.12,2.15,1.84,1.84,0,0,1-2.3,1,1.66,1.66,0,0,1-1.12-2.15A1.86,1.86,0,0,1,338.25,116.89Z" transform="translate(0 -9)"/><path class="cls-3" d="M280.81,271a1.66,1.66,0,0,1-1.12-2.15,1.84,1.84,0,0,1,2.3-1,1.66,1.66,0,0,1,1.12,2.15A1.85,1.85,0,0,1,280.81,271Z" transform="translate(0 -9)"/><path class="cls-3" d="M361,127.93a1.62,1.62,0,0,1,.41,2.36,1.9,1.9,0,0,1-2.53.37,1.6,1.6,0,0,1-.41-2.35A1.9,1.9,0,0,1,361,127.93Z" transform="translate(0 -9)"/><path class="cls-3" d="M258,260a1.6,1.6,0,0,1-.41-2.35,1.9,1.9,0,0,1,2.53-.38,1.61,1.61,0,0,1,.41,2.36A1.9,1.9,0,0,1,258,260Z" transform="translate(0 -9)"/><path class="cls-3" d="M378.91,144.06a1.61,1.61,0,0,1-.32,2.37,1.91,1.91,0,0,1-2.54-.3,1.61,1.61,0,0,1,.32-2.37A1.91,1.91,0,0,1,378.91,144.06Z" transform="translate(0 -9)"/><path class="cls-3" d="M240.15,243.86a1.61,1.61,0,0,1,.32-2.37,1.91,1.91,0,0,1,2.54.31,1.6,1.6,0,0,1-.32,2.36A1.9,1.9,0,0,1,240.15,243.86Z" transform="translate(0 -9)"/><path class="cls-3" d="M392,166.29a1.66,1.66,0,0,1-1.09,2.16,1.86,1.86,0,0,1-2.32-1,1.65,1.65,0,0,1,1.09-2.15A1.84,1.84,0,0,1,392,166.29Z" transform="translate(0 -9)"/><path class="cls-3" d="M227,221.63a1.66,1.66,0,0,1,1.09-2.16,1.86,1.86,0,0,1,2.32,1,1.66,1.66,0,0,1-1.09,2.16A1.86,1.86,0,0,1,227,221.63Z" transform="translate(0 -9)"/><path class="cls-3" d="M392.25,221.09a1.86,1.86,0,0,1-2.31,1,1.66,1.66,0,0,1-1.11-2.15,1.85,1.85,0,0,1,2.31-1A1.66,1.66,0,0,1,392.25,221.09Z" transform="translate(0 -9)"/><path class="cls-3" d="M226.81,166.84a1.85,1.85,0,0,1,2.31-1,1.66,1.66,0,0,1,1.11,2.15,1.86,1.86,0,0,1-2.31,1A1.66,1.66,0,0,1,226.81,166.84Z" transform="translate(0 -9)"/><path class="cls-3" d="M378.71,244.1a1.9,1.9,0,0,1-2.54.3,1.61,1.61,0,0,1-.32-2.37,1.91,1.91,0,0,1,2.54-.29A1.6,1.6,0,0,1,378.71,244.1Z" transform="translate(0 -9)"/><path class="cls-3" d="M240.35,143.82a1.89,1.89,0,0,1,2.54-.29,1.61,1.61,0,0,1,.32,2.36,1.9,1.9,0,0,1-2.54.3A1.61,1.61,0,0,1,240.35,143.82Z" transform="translate(0 -9)"/><path class="cls-3" d="M360.34,260.45a1.9,1.9,0,0,1-2.53-.4,1.61,1.61,0,0,1,.43-2.35,1.9,1.9,0,0,1,2.53.4A1.62,1.62,0,0,1,360.34,260.45Z" transform="translate(0 -9)"/><path class="cls-3" d="M258.72,127.48a1.89,1.89,0,0,1,2.53.39,1.61,1.61,0,0,1-.43,2.35,1.9,1.9,0,0,1-2.53-.39A1.61,1.61,0,0,1,258.72,127.48Z" transform="translate(0 -9)"/><path class="cls-3" d="M338.76,270.86a1.85,1.85,0,0,1-2.31-1,1.67,1.67,0,0,1,1.1-2.16,1.85,1.85,0,0,1,2.31,1A1.65,1.65,0,0,1,338.76,270.86Z" transform="translate(0 -9)"/><path class="cls-3" d="M280.3,117.06a1.84,1.84,0,0,1,2.31,1,1.65,1.65,0,0,1-1.1,2.15,1.85,1.85,0,0,1-2.31-1A1.65,1.65,0,0,1,280.3,117.06Z" transform="translate(0 -9)"/><polygon class="cls-3" points="588.94 172.25 616.61 151.65 644.29 172.25 644.29 255.78 588.94 255.78 588.94 274.39 588.94 172.25"/><polygon class="cls-3" points="553.06 197.01 574.03 181.4 594.99 197.01 594.99 260.3 553.06 260.3 553.06 274.39 553.06 197.01"/><path class="cls-3" d="M24.7,263.74H.42v-49.1l.61-.47v-2.46l1-.8v-3a.3.3,0,0,1,.31-.29h0a.3.3,0,0,1,.31.29v3l1,.81v2.46l.61.47v.26l5.91-4.63v-4.44l.73-.57v-2.95l1.21-.94v-2.89a.37.37,0,0,1,.38-.36h0a.37.37,0,0,1,.38.36v2.89l1.21.94v2.95l.72.57v4.44l5.92,4.63v-.26l.6-.47v-2.46l1-.81v-3a.3.3,0,0,1,.31-.29h0a.3.3,0,0,1,.32.29v3l1,.8v2.46l.61.47v49.1Z" transform="translate(0 -9)"/><polygon class="cls-1" points="632.71 143.86 642.59 139.92 659.36 133.25 659.36 133.27 659.36 133.25 684.46 139.92 699.24 143.86 699.24 270.56 659.36 270.56 659.36 270.55 659.36 270.56 632.71 270.56 632.71 143.86"/><polygon class="cls-1" points="1276.62 179.34 1266.74 175.41 1249.97 168.73 1249.97 168.76 1249.97 168.73 1224.88 175.41 1210.09 179.35 1210.09 278.95 1249.97 278.95 1249.97 278.94 1249.97 278.95 1276.62 278.95 1276.62 179.34"/><polygon class="cls-1" points="1146.85 135.88 1137.49 132.15 1121.61 125.82 1121.61 125.84 1121.61 125.82 1097.84 132.15 1083.83 135.88 1083.83 263.09 1121.61 263.09 1121.61 263.07 1121.61 263.09 1146.85 263.09 1146.85 135.88"/><polygon class="cls-1" points="1163.2 157.35 1169.6 154.45 1169.6 148.72 1174.33 146.57 1174.33 136.44 1177.65 134.94 1177.65 122.16 1180.46 120.89 1180.46 120.89 1184.46 122.16 1184.46 134.94 1189.18 136.44 1189.18 146.57 1195.93 148.72 1195.93 154.45 1205.05 157.35 1205.05 266.95 1180.46 266.95 1180.46 266.95 1163.2 266.95 1163.2 157.35"/><polygon class="cls-1" points="703.86 163.59 712.98 159.96 728.45 153.8 728.45 153.82 728.45 153.8 751.6 159.96 765.25 163.59 765.25 280.5 728.45 280.5 728.45 280.49 728.45 280.5 703.86 280.5 703.86 163.59"/><polygon class="cls-1" points="765.25 183.76 772.45 180.89 784.68 176.02 784.68 176.04 784.68 176.02 802.98 180.89 813.76 183.76 813.76 276.17 784.68 276.17 784.68 276.15 784.68 276.17 765.25 276.17 765.25 183.76"/><path class="cls-3" d="M963.8,87.31,974,84.9l-11.49.31a15.56,15.56,0,0,0-1.34-1.67L968.73,78l-9.35,3.91a10.43,10.43,0,0,0-1-.64,14.66,14.66,0,0,0-1.67-.77l1.65-8.5-4.1,7.78a15,15,0,0,0-2.92-.36l-7-9.65,4.52,9.87a6.54,6.54,0,0,0-2.78,1.3l-6-2.78v1l4.82,3.15a7.05,7.05,0,0,0-1,2.16L940,85v1l3.7.14a3,3,0,0,0,.89,1.75v.19L940,89.46V90l4.72-.29c.08,1,.19,2.22.32,2.85.26,1.25.45,1.91,1,2a1.58,1.58,0,0,0,1.08-.42l.13.95s-.57,1.31-1,2.15-.9,2-.9,2a19,19,0,0,1-3.26-1.79c-.83-.71-.89-.65-1.28-1.66s-.13-1.61-.7-2.5a1.13,1.13,0,0,1-.12-.21V268.64h55.14L995.05,243l2.37-3.3-3.68-1.47.13-5.26-9.53-2.3-.62-1.07a47,47,0,0,1-3.83-10.11s1.08.95.76-2.68-1.21-7.73-1.34-9.87a26.38,26.38,0,0,1,.32-4.88,2.5,2.5,0,0,0,1.34-2.8c-.45-2-.89-6.72-.89-6.72s1,.3.7-2.5-2.75-32-2.75-32a9.55,9.55,0,0,1,2.69,1.07c.89.66,4.8.66,6.65-2.49a18,18,0,0,0,2.69-7.26c.13-1.61,1.72-4,1.6-5.65s.38-5-.64-6.19-.9-2.74-1.22-3.93-.19-1.42-.64-2S988,130,988,130l2.88-6.42-2.75-4.4-2.75-.54-2.62,5.18s-1-.54-1.48-.9-3.77-6.18-4.73-8a21.69,21.69,0,0,0-3.26-4.52,6.11,6.11,0,0,0-2.56-2c-1.09-.48.32-.89-1.6-1.72a8.06,8.06,0,0,1-4.23-3.63c-.63-1.49-.51-1.13-.51-1.13a1,1,0,0,0,1.22-.6c.26-.89-.9-2.62-.9-2.62a7.94,7.94,0,0,0,.39-3.33,3.23,3.23,0,0,0-1.28-1.72l-.39-1.79s.39.71,1-.12.45-1.43-.06-3.15A8.73,8.73,0,0,0,963.8,87.31ZM940,78.13l-5.25-2.4L940,79.16v-1ZM940,85v1l-4.62-.17c.24,1.27,1,1.66,1.54,1.71s1,1.23,1.74,2.3l1.34-.39V90l-1.16.07c.76,1,.72,2.08,1.16,2.94V268.64H916.85V241.29l-2-3,3.55-2.32v-5.63l9.94-.84a3.14,3.14,0,0,1,.53-.49c2.24-1.73,5.44-3.39,7.23-5.89s2.69-12.85,2.94-16.36a37,37,0,0,0,.13-4.94s-1.15-2.86-2-5.35a63.85,63.85,0,0,1-2-6.79c-.39-1.9-.51-3.33-1.09-6.12s-.58-10.95-.58-10.95a13.45,13.45,0,0,0-.51-2.62,15,15,0,0,1-.51-2.79,24.5,24.5,0,0,1-.89-2.92,43.79,43.79,0,0,1-.89-8,32.57,32.57,0,0,1,1-8.25s-.7-.94-1.51-2.16-1-6,.3-11.28a26,26,0,0,1,4.77-9.3s-.31-.61-1.32-3-.77-2.56-1.27-5.74-.78-2.48-1.86-3.53-.59-3.2-1-3-.7-.54-2.36-.43-1.17-2-1.09-5,1.86-7.07,2.36-8,.08-2.49-.46-4.18a59.66,59.66,0,0,0-2.56-7c-1.47-3.35-2.59-9.8-2.94-11.71s-.7-4.9-.7-4.5a1.68,1.68,0,0,1-1.43,1.19c-.7,0-1.6-1.84-1.6-1.84s-.26-.07-.3-1.3-.55-1.22-.9-1.87a.69.69,0,0,1,.31-1,3.08,3.08,0,0,1,.28-1.45c.35-.75-.2-3.17-.2-3.17a2.38,2.38,0,0,1-1.28-1.19.88.88,0,0,1,.47-1.37,1.76,1.76,0,0,1-.86-1.33c0-.83.55-.86.55-.86a1.8,1.8,0,0,1-.66-1.48c.15-.79,1.08-.65,1.08-.65V51.94a7,7,0,0,0-.48-1.06c-1.1-.53-1.79-1.23-1.22-1.64l-1.12-.36a4.85,4.85,0,0,1-1.87-1.44.67.67,0,0,1,0-1.12c.35-.29.51-1.55.74-1.94-.07-.92-1.48-1.57-1.48-1.57l1.09.06-.32-.83,1.28.12.31-.78,1.8.24,1-1.13,1.15.43a3.13,3.13,0,0,0-.6-1.48c-.93-1.16-2-3.28-.78-4.76s1.86-.75,2.79-1.76,1.94-2.2,2.95-1.77,0,3,.93,2.45,1.51.25,2.55-.4,1.82-2.16,2.14-1.69,0,1.23-.12,2.16-2.91,3-3.45,4.08-.74,1.55-1.2,1.73c-.27.1-.2.51-.09,1h0a5.83,5.83,0,0,1,.17,1.06l2.45-.39.25.9,1.67-.24-.32.83,1.15.12a5.78,5.78,0,0,0-1.15,1.37c-.39.72.32,1.31.83,2.26s-.7,1.37-.7,2-3.84,1.31-3.84,1.31.57.54.51,1-1,.84-1,.84l-.26,2.38s.26.06,1.28,1.25a15.18,15.18,0,0,1,2.5,5c.7,2.08.58,3,1.6,6.19s.45,2.62,2.62,7.08,4,10.35,4.16,12c0,.08,0,.15,0,.23Z" transform="translate(0 -9)"/><rect class="cls-4" x="837.87" y="84.66" width="4.68" height="183.61"/><rect class="cls-4" x="869.98" y="84.66" width="4.68" height="183.61"/><rect class="cls-4" x="837.87" y="111.32" width="36.79" height="4.35"/><rect class="cls-4" x="837.87" y="173.83" width="36.79" height="4.35"/><path class="cls-4" d="M1021.22,184.32a172.33,172.33,0,0,0,14.11-39.82l2.9.59a182.06,182.06,0,0,1-10.81,33.07v26q3.15-3.15,6.08-6.26c19.29-20.46,31-39.26,34.39-53.42l2.9.59c-1.64,7-5.24,15-10.69,23.76v102h-3v-97.4q-3.24,4.8-7.17,9.83v85.79h-3V187q-5.13,6.24-11.24,12.75-4,4.19-8.32,8.47v60.85h-3v-58c-1.05,1-2.13,2-3.22,3v-3.92c1.09-1,2.17-2.05,3.22-3.08V184.46q-1.5,3-3.22,6.09ZM1012.05,200c1.08-1.63,2.12-3.24,3.1-4.84,2.26-3.66,4.27-7.27,6.07-10.8v6.23c-1,1.81-2.08,3.65-3.21,5.49v17.15q1.63-1.5,3.21-3v3.92q-1.58,1.47-3.21,2.94v52h-3V219.72c-1,.87-2,1.74-3,2.61v-3.78l3-2.65V200.73c-1,1.44-2,2.9-3,4.36Zm-9.3,12.55q5.18-6.34,9.3-12.55v5.13q-1.44,2-3,4.07v12l3-2.6v3.78c-1,.86-2,1.71-3,2.56v44.17h-3V227.39q-1.65,1.38-3.33,2.74v-3.67c1.12-.93,2.23-1.85,3.33-2.78V213q-1.61,2-3.33,4ZM993.43,223q5.05-5.28,9.32-10.51V217q-1.62,1.89-3.34,3.8v8.35c1.13-.9,2.24-1.81,3.34-2.71v3.67c-1.1.89-2.21,1.79-3.34,2.68v36.25h-3v-33.9l-3,2.32v-3.59c1-.78,2-1.56,3-2.35V224q-1.45,1.54-3,3.1ZM916,223a222.67,222.67,0,0,0,38.72,31.74A221.92,221.92,0,0,0,993.43,223v4.12c-1,1-2,2-3,3v6.1l3-2.31v3.59l-3,2.28v29.3h-3V242q-10.63,7.85-22.49,15.6l-1.7-2.26q12.81-8.35,24.19-16.87v-5.53a237.62,237.62,0,0,1-31.89,24.66l-.85-1.13-.85,1.13A236.85,236.85,0,0,1,922,232.92v5.53q11.35,8.49,24.18,16.87l-1.7,2.26Q932.61,249.86,922,242v27.08h-3v-29.3c-1-.76-2-1.52-3-2.28v-3.59c1,.78,2,1.54,3,2.31v-6.1c-1-1-2-2-3-3Zm-9.31-10.51q4.26,5.22,9.31,10.51v4.12q-1.53-1.56-3-3.1v7.5c1,.79,2,1.57,3,2.35v3.59l-3-2.32v33.9h-3V232.81c-1.12-.89-2.23-1.79-3.33-2.68v-3.67c1.09.9,2.21,1.81,3.33,2.71v-8.35c-1.14-1.27-2.26-2.54-3.33-3.8ZM897.38,200c2.76,4.13,5.84,8.32,9.3,12.55V217q-1.73-2-3.34-4v10.69c1.1.93,2.21,1.85,3.34,2.78v3.67q-1.7-1.37-3.34-2.74v41.67h-3V224.89c-1-.85-2-1.7-3-2.56v-3.78l3,2.6v-12q-1.54-2-3-4.07Zm-9.18-15.65c1.8,3.54,3.81,7.15,6.07,10.81,1,1.6,2,3.21,3.11,4.84v5.13c-1-1.46-2-2.92-3-4.36V215.9c1,.88,2,1.76,3,2.65v3.78c-1-.87-2-1.74-3-2.61v49.34h-3v-52q-1.63-1.47-3.21-2.94v-3.92q1.57,1.5,3.21,3V196q-1.7-2.78-3.21-5.49ZM874.1,144.5a171.55,171.55,0,0,0,14.1,39.81v6.24q-1.71-3.08-3.22-6.09v22.65c1.06,1,2.13,2,3.22,3.08v3.92q-1.63-1.52-3.22-3v58h-3V208.21q-4.37-4.28-8.32-8.47-6.12-6.5-11.24-12.75v82.07h-3V183.27q-3.93-5-7.17-9.83v97.4h-3v-102c-5.44-8.76-9.05-16.79-10.69-23.76l2.91-.59c3.34,14.16,15.1,33,34.38,53.42q2.93,3.11,6.09,6.26v-26a181.4,181.4,0,0,1-10.82-33.07Z" transform="translate(0 -9)"/><rect class="cls-4" x="1066.87" y="84.66" width="4.68" height="183.61"/><rect class="cls-4" x="1034.76" y="84.66" width="4.68" height="183.61"/><rect class="cls-4" x="1034.76" y="111.32" width="36.79" height="4.35"/><rect class="cls-4" x="1034.76" y="173.83" width="36.79" height="4.35"/><polygon class="cls-3" points="832.26 153.24 825.42 150.14 825.42 144.02 820.36 141.72 820.36 130.9 816.82 129.29 816.82 115.64 813.82 114.28 813.82 114.28 809.54 115.64 809.54 129.29 804.5 130.9 804.5 141.72 797.29 144.02 797.29 150.14 787.55 153.24 787.55 268.27 813.82 268.27 813.82 268.27 832.26 268.27 832.26 153.24"/><polygon class="cls-3" points="1076.17 144.7 1084.54 141.37 1098.73 135.71 1098.73 135.73 1098.73 135.71 1119.97 141.37 1132.49 144.7 1132.49 268.27 1098.73 268.27 1098.73 268.26 1098.73 268.27 1076.17 268.27 1076.17 144.7"/><rect class="cls-4" x="632.71" y="252.96" width="643.91" height="37.9"/><polygon class="cls-3" points="1247.87 188.8 1252.27 186.81 1252.27 182.87 1255.52 181.4 1255.52 174.44 1257.8 173.4 1257.8 164.63 1259.73 163.75 1259.73 163.75 1262.48 164.63 1262.48 173.4 1265.72 174.44 1265.72 181.4 1270.36 182.87 1270.36 186.81 1276.62 188.8 1276.62 262.77 1259.73 262.77 1259.73 262.77 1247.87 262.77 1247.87 188.8"/><polygon class="cls-3" points="1135.79 172.42 1144.65 166.47 1144.66 166.47 1163 169.74 1173.81 171.66 1173.81 255.68 1135.79 255.68 1135.79 172.42"/><polygon class="cls-3" points="1177.1 201.06 1184.59 196.03 1184.59 196.03 1200.07 198.79 1209.19 200.41 1209.19 271.34 1177.1 271.34 1177.1 201.06"/><polygon class="cls-3" points="1212.48 197.14 1219.97 192.12 1219.97 192.12 1235.45 194.87 1244.58 196.5 1244.58 267.42 1212.48 267.42 1212.48 197.14"/><polygon class="cls-3" points="783.25 163.96 775.29 160.79 761.78 155.41 761.78 155.43 761.78 155.41 741.56 160.79 729.65 163.96 729.65 266.04 761.78 266.04 761.78 266.03 761.78 266.04 783.25 266.04 783.25 163.96"/><polygon class="cls-3" points="725.41 188.28 718.68 185.6 707.25 181.05 707.25 181.07 707.25 181.05 690.14 185.6 680.07 188.28 680.07 258.04 707.25 258.04 707.25 258.03 707.25 258.04 725.41 258.04 725.41 188.28"/><polygon class="cls-3" points="676.67 172.45 673.66 171.25 668.55 169.22 668.55 169.23 668.55 169.22 660.9 171.25 656.39 172.45 656.39 261.28 668.55 261.28 668.55 261.27 668.55 261.28 676.67 261.28 676.67 172.45"/><polygon class="cls-3" points="652.99 178.28 649.98 177.08 644.87 175.05 644.87 175.05 644.87 175.05 637.22 177.08 632.71 178.28 632.71 267.11 644.87 267.11 644.87 267.1 644.87 267.11 652.99 267.11 652.99 178.28"/><polygon class="cls-1" points="1443.84 115.46 1455.91 110.65 1476.4 102.49 1476.4 102.52 1476.4 102.49 1507.06 110.65 1525.12 115.46 1525.12 271.3 1476.4 271.3 1476.4 271.28 1476.4 271.3 1443.84 271.3 1443.84 115.46"/><polygon class="cls-1" points="1451.74 76.94 1439.67 72.14 1419.19 63.98 1419.19 64.01 1419.19 63.98 1388.53 72.14 1370.46 76.95 1370.46 267.48 1419.19 267.48 1419.19 267.46 1419.19 267.48 1451.74 267.48 1451.74 76.94"/><polygon class="cls-1" points="1877.64 181.33 1870.67 178.55 1858.84 173.84 1858.84 173.86 1858.84 173.84 1841.14 178.55 1830.71 181.33 1830.71 271.3 1858.84 271.3 1858.84 271.29 1858.84 271.3 1877.64 271.3 1877.64 181.33"/><polygon class="cls-1" points="1873.07 159.09 1880.04 156.32 1891.87 151.61 1891.87 151.62 1891.87 151.61 1909.57 156.32 1920 159.09 1920 269.1 1891.87 269.1 1891.87 269.08 1891.87 269.09 1873.07 269.09 1873.07 159.09"/><rect class="cls-2" x="1699.71" y="166.51" width="36.76" height="93.99"/><rect class="cls-2" x="1519.61" y="185.31" width="106.59" height="73.49"/><rect class="cls-4" x="1735.72" y="96.35" width="6.05" height="6.49"/><polygon class="cls-3" points="1738.74 90.2 1741.77 96.35 1735.72 96.35 1738.74 90.2"/><polygon class="cls-3" points="1790.15 85.67 1794.49 148.77 1785.8 148.77 1790.15 85.67"/><polygon class="cls-3" points="1727.32 148.77 1731.69 148.77 1731.69 99.26 1774.02 99.26 1774.02 148.77 1806.28 148.77 1806.28 99.26 1848.61 99.26 1848.61 148.77 1852.98 148.77 1852.98 187.83 1857.01 187.83 1857.01 253.57 1852.98 253.57 1727.32 253.57 1723.29 253.57 1723.29 187.83 1727.32 187.83 1727.32 148.77"/><path class="cls-5" d="M1751.51,157.77V123.39c0-1.81-1.81-3.3-4-3.3h0c-2.22,0-4,1.49-4,3.3v34.38Z" transform="translate(0 -9)"/><path class="cls-5" d="M1764.61,157.77V123.39c0-1.81-1.81-3.3-4-3.3h0c-2.22,0-4,1.49-4,3.3v34.38Z" transform="translate(0 -9)"/><rect class="cls-6" x="1731.69" y="102.84" width="42.34" height="2.2"/><rect class="cls-6" x="1806.28" y="102.84" width="42.34" height="2.2"/><path class="cls-5" d="M1828.79,157.77V123.39c0-1.81,1.81-3.3,4-3.3h0c2.22,0,4,1.49,4,3.3v34.38Z" transform="translate(0 -9)"/><path class="cls-5" d="M1815.68,157.77V123.39c0-1.81,1.82-3.3,4-3.3h0c2.21,0,4,1.49,4,3.3v34.38Z" transform="translate(0 -9)"/><path class="cls-5" d="M1733.08,179.1h3v-11c-1-4.87-2-4.21-3,0Z" transform="translate(0 -9)"/><path class="cls-5" d="M1767.79,179.1h3v-11c-1-4.87-2-4.21-3,0Z" transform="translate(0 -9)"/><path class="cls-5" d="M1809.54,179.1h3v-11c-1-4.87-2-4.21-3,0Z" transform="translate(0 -9)"/><path class="cls-5" d="M1844.25,179.1h3v-11c-1-4.87-2-4.21-3,0Z" transform="translate(0 -9)"/><path class="cls-5" d="M1740.09,179.1h2.67v-11c-.89-4.87-1.78-4.21-2.67,0Z" transform="translate(0 -9)"/><path class="cls-5" d="M1743.73,179.1h2.67v-11c-.89-4.87-1.78-4.21-2.67,0Z" transform="translate(0 -9)"/><path class="cls-5" d="M1747.38,179.1H1750v-11c-.88-4.87-1.77-4.21-2.66,0Z" transform="translate(0 -9)"/><path class="cls-5" d="M1751,179.1h2.67v-11c-.89-4.87-1.78-4.21-2.67,0Z" transform="translate(0 -9)"/><path class="cls-5" d="M1754.66,179.1h2.67v-11c-.89-4.87-1.78-4.21-2.67,0Z" transform="translate(0 -9)"/><path class="cls-5" d="M1758.3,179.1H1761v-11c-.89-4.87-1.78-4.21-2.67,0Z" transform="translate(0 -9)"/><path class="cls-5" d="M1762,179.1h2.66v-11c-.88-4.87-1.77-4.21-2.66,0Z" transform="translate(0 -9)"/><path class="cls-5" d="M1773.81,179.1h3.55v-11c-1.18-4.87-2.37-4.21-3.55,0Z" transform="translate(0 -9)"/><path class="cls-5" d="M1778.66,179.1h3.56v-11c-1.19-4.87-2.37-4.21-3.56,0Z" transform="translate(0 -9)"/><path class="cls-5" d="M1783.52,179.1h3.55v-11c-1.18-4.87-2.37-4.21-3.55,0Z" transform="translate(0 -9)"/><path class="cls-5" d="M1788.37,179.1h3.56v-11c-1.19-4.87-2.37-4.21-3.56,0Z" transform="translate(0 -9)"/><path class="cls-5" d="M1793.23,179.1h3.55v-11c-1.18-4.87-2.37-4.21-3.55,0Z" transform="translate(0 -9)"/><path class="cls-5" d="M1798.08,179.1h3.56v-11c-1.19-4.87-2.37-4.21-3.56,0Z" transform="translate(0 -9)"/><path class="cls-5" d="M1802.93,179.1h3.56v-11c-1.18-4.87-2.37-4.21-3.56,0Z" transform="translate(0 -9)"/><path class="cls-5" d="M1840.21,179.1h-2.67v-11c.89-4.87,1.77-4.21,2.67,0Z" transform="translate(0 -9)"/><path class="cls-5" d="M1836.56,179.1h-2.66v-11c.88-4.87,1.77-4.21,2.66,0Z" transform="translate(0 -9)"/><path class="cls-5" d="M1832.92,179.1h-2.67v-11c.89-4.87,1.78-4.21,2.67,0Z" transform="translate(0 -9)"/><path class="cls-5" d="M1829.28,179.1h-2.67v-11c.89-4.87,1.78-4.21,2.67,0Z" transform="translate(0 -9)"/><path class="cls-5" d="M1825.64,179.1H1823v-11c.89-4.87,1.78-4.21,2.67,0Z" transform="translate(0 -9)"/><path class="cls-5" d="M1822,179.1h-2.66v-11c.88-4.87,1.77-4.21,2.66,0Z" transform="translate(0 -9)"/><path class="cls-5" d="M1818.35,179.1h-2.67v-11c.89-4.87,1.78-4.21,2.67,0Z" transform="translate(0 -9)"/><path class="cls-5" d="M1791.9,198.75a1.74,1.74,0,1,0-2.08-1.7A1.93,1.93,0,0,0,1791.9,198.75Z" transform="translate(0 -9)"/><path class="cls-5" d="M1790.38,191.18a.7.7,0,0,0,.78-.16,4.44,4.44,0,0,1,.6-.61l0-2.94a3.13,3.13,0,0,0-1.43-.69,1.22,1.22,0,0,0-1,.85C1789.19,187.87,1790.38,191.18,1790.38,191.18Z" transform="translate(0 -9)"/><path class="cls-5" d="M1793.18,191.86l-.89,2.91h0l0,.08-.3,0-.3,0v-.08h0l-.89-2.91c.23,0,.48.08.52,0,.12-.29.41-.73.71-.73s.59.44.7.73C1792.7,191.94,1793,191.89,1793.18,191.86Z" transform="translate(0 -9)"/><path class="cls-5" d="M1793.52,191.18a.7.7,0,0,1-.78-.16,4.44,4.44,0,0,0-.6-.61l0-2.94a3.13,3.13,0,0,1,1.43-.69,1.22,1.22,0,0,1,1,.85C1794.71,187.87,1793.52,191.18,1793.52,191.18Z" transform="translate(0 -9)"/><path class="cls-5" d="M1794.17,191.34a.69.69,0,0,0,.78.18,6.61,6.61,0,0,1,.88-.28l1.75-2.57s-.3-.94-.82-1.18a1.5,1.5,0,0,0-1.41.31C1795.16,188,1794.17,191.34,1794.17,191.34Z" transform="translate(0 -9)"/><path class="cls-5" d="M1796.17,193.08l-2.54,2.15h0l-.07.06-.23-.15L1793,195l0-.07,0,0,1-2.88c.19.12.38.27.48.19.28-.21.79-.47,1-.34s.25.62.17.92C1795.71,193,1796,193,1796.17,193.08Z" transform="translate(0 -9)"/><path class="cls-5" d="M1796.89,192.63s-.55,0-.58-.46a4.28,4.28,0,0,0-.14-.77l1.84-2.53a3.58,3.58,0,0,1,1.65,0A1,1,0,0,1,1800,190C1799.94,190.25,1796.89,192.63,1796.89,192.63Z" transform="translate(0 -9)"/><path class="cls-5" d="M1797.35,193a.54.54,0,0,0,.56.48,5.7,5.7,0,0,1,.94.11l3.09-1.5s.31-.94,0-1.36-1.13-.4-1.41-.31S1797.35,193,1797.35,193Z" transform="translate(0 -9)"/><path class="cls-5" d="M1798,195.36l-3.52.82,0,0-.09,0-.11-.23-.19-.19.08-.05v0l2.62-2.08c.1.17.17.37.3.35.37-.06,1-.08,1.13.14s-.17.63-.42.86C1797.7,195.06,1797.89,195.21,1798,195.36Z" transform="translate(0 -9)"/><path class="cls-5" d="M1798.92,195.26s-.46-.25-.22-.64a3.43,3.43,0,0,0,.34-.72l3.14-1.44s1.15.25,1.44.67-.14,1-.37,1.16S1798.92,195.26,1798.92,195.26Z" transform="translate(0 -9)"/><path class="cls-5" d="M1799.08,195.8a.44.44,0,0,0,.19.64,5.05,5.05,0,0,1,.74.49l3.6-.05s.84-.68.84-1.17-.74-.8-1-.84S1799.08,195.8,1799.08,195.8Z" transform="translate(0 -9)"/><path class="cls-5" d="M1798.24,198.09l-3.55-.73v0h-.1l.05-.25-.05-.24.1,0v0l3.55-.72c0,.18-.1.39,0,.43.36.09.9.33.9.57s-.54.49-.9.58C1798.14,197.7,1798.21,197.9,1798.24,198.09Z" transform="translate(0 -9)"/><path class="cls-5" d="M1799.08,198.37a.44.44,0,0,1,.19-.64,5.05,5.05,0,0,0,.74-.49l3.6,0s.84.69.84,1.17-.74.81-1,.85S1799.08,198.37,1799.08,198.37Z" transform="translate(0 -9)"/><path class="cls-5" d="M1798.88,198.9s-.46.25-.22.64a4.19,4.19,0,0,1,.34.72l3.14,1.44s1.14-.25,1.44-.67-.15-1-.38-1.16S1798.88,198.9,1798.88,198.9Z" transform="translate(0 -9)"/><path class="cls-5" d="M1796.75,200.54l-2.63-2.08v0l-.07-.05.19-.19.11-.23.09,0h0l3.51.82c-.14.15-.32.3-.23.39.26.23.57.65.42.86s-.75.2-1.12.14C1796.91,200.16,1796.84,200.37,1796.75,200.54Z" transform="translate(0 -9)"/><path class="cls-5" d="M1797.3,201.13a.56.56,0,0,1,.57-.48,6.62,6.62,0,0,0,.94-.12l3.09,1.51s.3.94,0,1.36-1.14.39-1.42.31S1797.3,201.13,1797.3,201.13Z" transform="translate(0 -9)"/><path class="cls-5" d="M1796.81,201.5s-.54,0-.58.47a3.42,3.42,0,0,1-.14.76l1.84,2.53a3.62,3.62,0,0,0,1.66,0,.94.94,0,0,0,.37-1.16C1799.86,203.88,1796.81,201.5,1796.81,201.5Z" transform="translate(0 -9)"/><path class="cls-5" d="M1794,202.06l-1-2.88h0l0-.08.28-.09.24-.15.06.06h0l2.54,2.15c-.21.08-.47.13-.44.24.08.3.1.8-.16.92s-.78-.13-1.06-.34C1794.34,201.79,1794.15,202,1794,202.06Z" transform="translate(0 -9)"/><path class="cls-5" d="M1794.09,202.79a.69.69,0,0,1,.78-.18,6.61,6.61,0,0,0,.88.28l1.76,2.57s-.31.94-.82,1.18a1.52,1.52,0,0,1-1.42-.31C1795.08,206.14,1794.09,202.79,1794.09,202.79Z" transform="translate(0 -9)"/><path class="cls-5" d="M1793.43,202.92a.69.69,0,0,0-.78.16,5.08,5.08,0,0,1-.59.6l0,2.95a3.14,3.14,0,0,0,1.43.68,1.21,1.21,0,0,0,1-.84C1794.62,206.22,1793.43,202.92,1793.43,202.92Z" transform="translate(0 -9)"/><path class="cls-5" d="M1790.63,202.23l.89-2.9h0v-.07l.3,0,.3,0,0,.07h0l.89,2.9c-.23,0-.48-.08-.53,0-.11.3-.4.73-.7.73s-.59-.43-.71-.73C1791.11,202.15,1790.86,202.21,1790.63,202.23Z" transform="translate(0 -9)"/><path class="cls-5" d="M1790.29,202.92a.7.7,0,0,1,.79.16,4.62,4.62,0,0,0,.58.6l0,2.95a3.14,3.14,0,0,1-1.43.68,1.21,1.21,0,0,1-1-.84C1789.1,206.22,1790.29,202.92,1790.29,202.92Z" transform="translate(0 -9)"/><path class="cls-5" d="M1789.64,202.76a.68.68,0,0,0-.78-.19,4.92,4.92,0,0,1-.88.28l-1.75,2.57s.3.94.81,1.18a1.48,1.48,0,0,0,1.42-.31C1788.65,206.11,1789.64,202.76,1789.64,202.76Z" transform="translate(0 -9)"/><path class="cls-5" d="M1787.64,201l2.54-2.16h0l.07-.06.23.16.28.08,0,.08h0l-1,2.88c-.19-.11-.37-.26-.48-.19-.28.21-.8.47-1,.35s-.25-.62-.17-.92C1788.1,201.15,1787.84,201.09,1787.64,201Z" transform="translate(0 -9)"/><path class="cls-5" d="M1786.92,201.47s.55,0,.58.46a4.28,4.28,0,0,0,.14.77l-1.84,2.53a3.49,3.49,0,0,1-1.65,0,.92.92,0,0,1-.38-1.15C1783.87,203.85,1786.92,201.47,1786.92,201.47Z" transform="translate(0 -9)"/><path class="cls-5" d="M1786.46,201.07a.54.54,0,0,0-.56-.48,6.35,6.35,0,0,1-.94-.12l-3.09,1.51s-.31.94,0,1.36,1.13.39,1.41.31S1786.46,201.07,1786.46,201.07Z" transform="translate(0 -9)"/><path class="cls-5" d="M1785.78,198.74l3.52-.83,0,0,.09,0,.11.23.18.2-.07,0v0l-2.63,2.08c-.09-.17-.16-.38-.29-.36-.37.07-1,.08-1.13-.13s.17-.64.42-.87C1786.1,199,1785.92,198.89,1785.78,198.74Z" transform="translate(0 -9)"/><path class="cls-5" d="M1784.89,198.83s.46.25.22.64a3.87,3.87,0,0,0-.35.72l-3.14,1.44s-1.14-.25-1.44-.67.15-1,.39-1.15S1784.89,198.83,1784.89,198.83Z" transform="translate(0 -9)"/><path class="cls-5" d="M1784.73,198.3a.45.45,0,0,0-.19-.65,4.86,4.86,0,0,1-.74-.48l-3.6,0s-.84.69-.84,1.17.74.81,1,.85S1784.73,198.3,1784.73,198.3Z" transform="translate(0 -9)"/><path class="cls-5" d="M1785.57,196l3.55.73v0l.1,0,0,.24,0,.24-.1,0v0l-3.55.73c0-.19.1-.4,0-.43-.36-.1-.89-.33-.89-.58s.53-.48.89-.58C1785.67,196.4,1785.6,196.19,1785.57,196Z" transform="translate(0 -9)"/><path class="cls-5" d="M1784.73,195.72a.45.45,0,0,1-.19.65,4.86,4.86,0,0,0-.74.48l-3.6,0s-.84-.68-.84-1.17.74-.81,1-.85S1784.73,195.72,1784.73,195.72Z" transform="translate(0 -9)"/><path class="cls-5" d="M1784.93,195.2s.46-.25.22-.64a4.19,4.19,0,0,1-.34-.72l-3.14-1.44s-1.14.25-1.44.67.15,1,.38,1.15S1784.93,195.2,1784.93,195.2Z" transform="translate(0 -9)"/><path class="cls-5" d="M1787.06,193.55l2.63,2.08v0l.07,0-.19.2-.11.23-.09,0v0l-3.52-.83c.14-.14.32-.3.23-.38-.26-.23-.57-.65-.42-.87s.75-.2,1.12-.13C1786.9,193.93,1787,193.72,1787.06,193.55Z" transform="translate(0 -9)"/><path class="cls-5" d="M1786.51,193a.55.55,0,0,1-.57.48,6.62,6.62,0,0,0-.94.12l-3.09-1.51s-.3-.93,0-1.35,1.13-.4,1.42-.31S1786.51,193,1786.51,193Z" transform="translate(0 -9)"/><path class="cls-5" d="M1787,192.59s.55,0,.58-.46a3.43,3.43,0,0,1,.14-.77l-1.84-2.53a3.62,3.62,0,0,0-1.66,0,.94.94,0,0,0-.37,1.16C1784,190.21,1787,192.59,1787,192.59Z" transform="translate(0 -9)"/><path class="cls-5" d="M1789.84,192l1,2.87,0,0,0,.07-.28.09-.24.16-.06-.06h0l-2.54-2.16c.21-.07.47-.13.44-.24-.08-.3-.1-.8.16-.92s.78.13,1.06.34C1789.47,192.3,1789.66,192.15,1789.84,192Z" transform="translate(0 -9)"/><path class="cls-5" d="M1789.72,191.3a.67.67,0,0,1-.78.18,6.61,6.61,0,0,0-.88-.28l-1.76-2.57s.31-.93.82-1.18a1.52,1.52,0,0,1,1.42.31C1788.73,188,1789.72,191.3,1789.72,191.3Z" transform="translate(0 -9)"/><path class="cls-5" d="M1750.34,208.81v-9.38c0-1.82-1.82-3.3-4-3.3h0c-2.21,0-4,1.48-4,3.3v9.38Z" transform="translate(0 -9)"/><path class="cls-5" d="M1763.44,208.81v-9.38c0-1.82-1.81-3.3-4-3.3h0c-2.22,0-4,1.48-4,3.3v9.38Z" transform="translate(0 -9)"/><path class="cls-5" d="M1824.92,208.81v-9.38c0-1.82-1.81-3.3-4-3.3h0c-2.22,0-4,1.48-4,3.3v9.38Z" transform="translate(0 -9)"/><path class="cls-5" d="M1838,208.81v-9.38c0-1.82-1.81-3.3-4-3.3h0c-2.21,0-4,1.48-4,3.3v9.38Z" transform="translate(0 -9)"/><path class="cls-5" d="M1752.86,191.15a.69.69,0,1,0-.83-.68A.77.77,0,0,0,1752.86,191.15Z" transform="translate(0 -9)"/><path class="cls-5" d="M1752.25,188.14a.28.28,0,0,0,.31-.06,1.49,1.49,0,0,1,.24-.24l0-1.17a1.23,1.23,0,0,0-.57-.27.48.48,0,0,0-.41.34C1751.78,186.83,1752.25,188.14,1752.25,188.14Z" transform="translate(0 -9)"/><path class="cls-5" d="M1753.36,188.42l-.35,1.15h0v0l-.12,0-.11,0v0h0l-.35-1.15c.09,0,.19,0,.21,0s.15-.29.27-.29.24.17.28.29S1753.27,188.42,1753.36,188.42Z" transform="translate(0 -9)"/><path class="cls-5" d="M1753.5,188.14a.28.28,0,0,1-.31-.06,1.49,1.49,0,0,0-.24-.24l0-1.17a1.23,1.23,0,0,1,.57-.27.48.48,0,0,1,.41.34C1754,186.83,1753.5,188.14,1753.5,188.14Z" transform="translate(0 -9)"/><path class="cls-5" d="M1753.75,188.21a.27.27,0,0,0,.31.07,1.92,1.92,0,0,1,.35-.11l.7-1s-.12-.37-.33-.47a.63.63,0,0,0-.56.12C1754.15,186.88,1753.75,188.21,1753.75,188.21Z" transform="translate(0 -9)"/><path class="cls-5" d="M1754.55,188.9l-1,.85h0l0,0-.1-.06-.11,0v0h0l.4-1.14c.07,0,.14.1.18.07s.32-.18.42-.13.1.24.07.36S1754.46,188.87,1754.55,188.9Z" transform="translate(0 -9)"/><path class="cls-5" d="M1754.83,188.72s-.21,0-.23-.19a1.41,1.41,0,0,0,0-.3l.72-1a1.5,1.5,0,0,1,.66,0,.37.37,0,0,1,.15.46C1756,187.77,1754.83,188.72,1754.83,188.72Z" transform="translate(0 -9)"/><path class="cls-5" d="M1755,188.88a.21.21,0,0,0,.22.19,3,3,0,0,1,.37,0l1.23-.59s.12-.38,0-.54-.45-.16-.56-.13S1755,188.88,1755,188.88Z" transform="translate(0 -9)"/><path class="cls-5" d="M1755.28,189.8l-1.39.33h0l0-.09-.07-.08,0,0h0l1-.82c0,.07.06.15.11.14s.39,0,.45.05-.07.26-.17.35S1755.23,189.74,1755.28,189.8Z" transform="translate(0 -9)"/><path class="cls-5" d="M1755.64,189.76s-.18-.1-.09-.25a2.46,2.46,0,0,0,.14-.29l1.24-.57s.45.1.57.27-.06.39-.15.46S1755.64,189.76,1755.64,189.76Z" transform="translate(0 -9)"/><path class="cls-5" d="M1755.7,190a.18.18,0,0,0,.08.26,1.86,1.86,0,0,1,.29.19l1.43,0s.33-.27.33-.46-.29-.32-.41-.33S1755.7,190,1755.7,190Z" transform="translate(0 -9)"/><path class="cls-5" d="M1755.37,190.88l-1.41-.29h0l0-.1,0-.09h0l1.41-.29c0,.08,0,.16,0,.17s.36.14.36.23-.22.19-.36.23S1755.36,190.81,1755.37,190.88Z" transform="translate(0 -9)"/><path class="cls-5" d="M1755.7,191a.18.18,0,0,1,.08-.26,3.45,3.45,0,0,0,.29-.19h1.43s.33.28.33.47-.29.32-.41.33S1755.7,191,1755.7,191Z" transform="translate(0 -9)"/><path class="cls-5" d="M1755.62,191.2s-.18.1-.09.26a1.2,1.2,0,0,1,.14.28l1.24.57s.46-.1.58-.26-.06-.4-.16-.46S1755.62,191.2,1755.62,191.2Z" transform="translate(0 -9)"/><path class="cls-5" d="M1754.78,191.85l-1-.82h0l0,0,.07-.07,0-.1,0,0h0l1.4.32c-.06.06-.13.12-.1.16s.23.25.17.34-.3.08-.45.05S1754.81,191.79,1754.78,191.85Z" transform="translate(0 -9)"/><path class="cls-5" d="M1755,192.09a.21.21,0,0,1,.22-.19,2.1,2.1,0,0,0,.37-.05l1.23.6s.12.37,0,.54-.45.15-.56.12S1755,192.09,1755,192.09Z" transform="translate(0 -9)"/><path class="cls-5" d="M1754.8,192.24s-.22,0-.23.18a1.41,1.41,0,0,1,0,.3l.73,1a1.35,1.35,0,0,0,.65,0,.38.38,0,0,0,.15-.46C1756,193.18,1754.8,192.24,1754.8,192.24Z" transform="translate(0 -9)"/><path class="cls-5" d="M1753.68,192.45l-.4-1.13h0v0l.11,0,.1-.06,0,0h0l1,.86c-.09,0-.18.05-.17.09s0,.32-.07.37-.31-.06-.42-.14S1753.75,192.41,1753.68,192.45Z" transform="translate(0 -9)"/><path class="cls-5" d="M1753.72,192.75a.28.28,0,0,1,.31-.08,2.69,2.69,0,0,0,.35.12l.7,1s-.13.38-.33.47a.6.6,0,0,1-.56-.12C1754.12,194.07,1753.72,192.75,1753.72,192.75Z" transform="translate(0 -9)"/><path class="cls-5" d="M1753.46,192.8a.28.28,0,0,0-.31.06,3,3,0,0,1-.23.24l0,1.17a1.23,1.23,0,0,0,.56.27.47.47,0,0,0,.41-.34C1753.93,194.11,1753.46,192.8,1753.46,192.8Z" transform="translate(0 -9)"/><path class="cls-5" d="M1752.35,192.52l.35-1.15h0v0l.12,0,.12,0v0h0l.35,1.15c-.09,0-.19,0-.21,0s-.16.29-.28.29-.23-.18-.28-.29S1752.44,192.51,1752.35,192.52Z" transform="translate(0 -9)"/><path class="cls-5" d="M1752.21,192.8a.3.3,0,0,1,.32.06,3,3,0,0,0,.23.24l0,1.17a1.23,1.23,0,0,1-.56.27.47.47,0,0,1-.41-.34C1751.75,194.11,1752.21,192.8,1752.21,192.8Z" transform="translate(0 -9)"/><path class="cls-5" d="M1752,192.73a.27.27,0,0,0-.31-.07,1.92,1.92,0,0,1-.35.11l-.7,1s.13.37.33.47a.6.6,0,0,0,.56-.13A13.55,13.55,0,0,0,1752,192.73Z" transform="translate(0 -9)"/><path class="cls-5" d="M1751.16,192l1-.85h0l0,0,.09.06.11,0v0h0l-.4,1.14c-.07,0-.15-.1-.19-.07s-.31.18-.42.13-.09-.24-.06-.36S1751.25,192.07,1751.16,192Z" transform="translate(0 -9)"/><path class="cls-5" d="M1750.88,192.22s.22,0,.23.18a1.12,1.12,0,0,0,.06.31l-.73,1a1.5,1.5,0,0,1-.66,0,.38.38,0,0,1-.15-.46C1749.67,193.16,1750.88,192.22,1750.88,192.22Z" transform="translate(0 -9)"/><path class="cls-5" d="M1750.7,192.06a.21.21,0,0,0-.22-.19,2.71,2.71,0,0,1-.37,0l-1.23.59s-.12.38,0,.54.45.16.57.12S1750.7,192.06,1750.7,192.06Z" transform="translate(0 -9)"/><path class="cls-5" d="M1750.43,191.14l1.39-.33h0l0,.09.07.08,0,0h0l-1,.82c0-.07-.06-.15-.12-.14s-.38,0-.44-.06.06-.25.16-.34S1750.49,191.2,1750.43,191.14Z" transform="translate(0 -9)"/><path class="cls-5" d="M1750.08,191.18s.18.1.08.25a1.65,1.65,0,0,0-.13.29l-1.25.57s-.45-.1-.57-.27.06-.4.15-.46S1750.08,191.18,1750.08,191.18Z" transform="translate(0 -9)"/><path class="cls-5" d="M1750,191a.19.19,0,0,0-.08-.26,2.89,2.89,0,0,1-.3-.19h-1.42s-.33.28-.33.47.29.32.41.33S1750,191,1750,191Z" transform="translate(0 -9)"/><path class="cls-5" d="M1750.35,190.06l1.4.28h0l0,.09,0,.1h0l-1.4.28c0-.07,0-.15,0-.17s-.35-.13-.35-.23.21-.19.35-.22S1750.36,190.13,1750.35,190.06Z" transform="translate(0 -9)"/><path class="cls-5" d="M1750,189.94a.19.19,0,0,1-.08.26,1.71,1.71,0,0,0-.3.19h-1.42s-.33-.28-.33-.47.29-.32.41-.33S1750,189.94,1750,189.94Z" transform="translate(0 -9)"/><path class="cls-5" d="M1750.09,189.74s.18-.1.09-.26a2,2,0,0,1-.14-.28l-1.24-.57s-.45.1-.57.26.06.4.15.46S1750.09,189.74,1750.09,189.74Z" transform="translate(0 -9)"/><path class="cls-5" d="M1750.94,189.08l1,.83h0l0,0-.07.07,0,.09h0l-1.39-.32c0-.06.13-.12.09-.16s-.23-.26-.17-.34.3-.08.45-.06S1750.9,189.15,1750.94,189.08Z" transform="translate(0 -9)"/><path class="cls-5" d="M1750.72,188.85a.23.23,0,0,1-.23.19,2.1,2.1,0,0,0-.37.05l-1.22-.6s-.12-.37,0-.54a.57.57,0,0,1,.56-.12C1749.56,187.86,1750.72,188.85,1750.72,188.85Z" transform="translate(0 -9)"/><path class="cls-5" d="M1750.91,188.7s.22,0,.23-.18a2.2,2.2,0,0,1,.06-.31l-.73-1a1.39,1.39,0,0,0-.66,0,.38.38,0,0,0-.15.46C1749.71,187.76,1750.91,188.7,1750.91,188.7Z" transform="translate(0 -9)"/><path class="cls-5" d="M1752,188.48l.4,1.14h0v0l-.11,0-.09.07,0,0h0l-1-.86c.09,0,.19,0,.18-.09s0-.32.06-.37.31.06.42.14S1752,188.53,1752,188.48Z" transform="translate(0 -9)"/><path class="cls-5" d="M1752,188.19a.27.27,0,0,1-.31.07c-.19-.07-.35-.11-.35-.11l-.69-1s.12-.37.32-.46a.57.57,0,0,1,.56.12A13.55,13.55,0,0,1,1752,188.19Z" transform="translate(0 -9)"/><path class="cls-5" d="M1827.44,191.15a.69.69,0,1,0-.83-.68A.77.77,0,0,0,1827.44,191.15Z" transform="translate(0 -9)"/><path class="cls-5" d="M1826.83,188.14a.3.3,0,0,0,.32-.06,1.26,1.26,0,0,1,.23-.24l0-1.17a1.23,1.23,0,0,0-.56-.27.47.47,0,0,0-.41.34C1826.37,186.83,1826.83,188.14,1826.83,188.14Z" transform="translate(0 -9)"/><path class="cls-5" d="M1828,188.42l-.36,1.15h0v0l-.12,0-.12,0v0h0l-.35-1.15c.09,0,.19,0,.21,0s.16-.29.28-.29.23.17.28.29S1827.86,188.42,1828,188.42Z" transform="translate(0 -9)"/><path class="cls-5" d="M1828.08,188.14a.28.28,0,0,1-.31-.06,1.75,1.75,0,0,0-.23-.24v-1.17a1.29,1.29,0,0,1,.57-.27.48.48,0,0,1,.41.34C1828.55,186.83,1828.08,188.14,1828.08,188.14Z" transform="translate(0 -9)"/><path class="cls-5" d="M1828.34,188.21a.27.27,0,0,0,.31.07,1.92,1.92,0,0,1,.35-.11l.69-1s-.12-.37-.32-.47a.61.61,0,0,0-.56.12A14.52,14.52,0,0,0,1828.34,188.21Z" transform="translate(0 -9)"/><path class="cls-5" d="M1829.13,188.9l-1,.85h0l0,0-.09-.06-.11,0v0h0l.4-1.14c.07,0,.15.1.19.07s.31-.18.42-.13.09.24.06.36S1829.05,188.87,1829.13,188.9Z" transform="translate(0 -9)"/><path class="cls-5" d="M1829.42,188.72s-.22,0-.23-.19a1.88,1.88,0,0,0-.06-.3l.73-1a1.49,1.49,0,0,1,.66,0,.38.38,0,0,1,.15.46C1830.62,187.77,1829.42,188.72,1829.42,188.72Z" transform="translate(0 -9)"/><path class="cls-5" d="M1829.6,188.88a.21.21,0,0,0,.22.19,3,3,0,0,1,.37,0l1.23-.59s.12-.38,0-.54-.45-.16-.56-.13S1829.6,188.88,1829.6,188.88Z" transform="translate(0 -9)"/><path class="cls-5" d="M1829.87,189.8l-1.4.33h0l0-.09-.08-.08,0,0h0l1-.82c0,.07.06.15.12.14s.38,0,.44.05-.06.26-.16.35S1829.81,189.74,1829.87,189.8Z" transform="translate(0 -9)"/><path class="cls-5" d="M1830.22,189.76s-.18-.1-.08-.25a1.65,1.65,0,0,0,.13-.29l1.25-.57s.45.1.57.27-.06.39-.15.46S1830.22,189.76,1830.22,189.76Z" transform="translate(0 -9)"/><path class="cls-5" d="M1830.28,190a.19.19,0,0,0,.08.26,1.71,1.71,0,0,1,.3.19l1.42,0s.33-.27.33-.46-.29-.32-.41-.33S1830.28,190,1830.28,190Z" transform="translate(0 -9)"/><path class="cls-5" d="M1830,190.88l-1.4-.29h0v-.19h0l1.4-.29c0,.08,0,.16,0,.17s.35.14.35.23-.21.19-.35.23S1829.94,190.81,1830,190.88Z" transform="translate(0 -9)"/><path class="cls-5" d="M1830.28,191a.19.19,0,0,1,.08-.26,2.89,2.89,0,0,0,.3-.19h1.42s.33.28.33.47-.29.32-.41.33S1830.28,191,1830.28,191Z" transform="translate(0 -9)"/><path class="cls-5" d="M1830.2,191.2a.19.19,0,0,0-.08.26,1.42,1.42,0,0,1,.13.28l1.25.57s.45-.1.57-.26-.06-.4-.15-.46S1830.2,191.2,1830.2,191.2Z" transform="translate(0 -9)"/><path class="cls-5" d="M1829.36,191.85l-1-.82h0l0,0,.07-.07,0-.1,0,0h0l1.39.32c-.06.06-.13.12-.09.16s.22.25.17.34-.3.08-.45.05S1829.4,191.79,1829.36,191.85Z" transform="translate(0 -9)"/><path class="cls-5" d="M1829.58,192.09a.22.22,0,0,1,.22-.19,1.92,1.92,0,0,0,.37-.05l1.23.6s.12.37,0,.54-.45.15-.56.12S1829.58,192.09,1829.58,192.09Z" transform="translate(0 -9)"/><path class="cls-5" d="M1829.39,192.24s-.22,0-.23.18a1.88,1.88,0,0,1-.06.3l.73,1a1.39,1.39,0,0,0,.66,0,.38.38,0,0,0,.15-.46C1830.59,193.18,1829.39,192.24,1829.39,192.24Z" transform="translate(0 -9)"/><path class="cls-5" d="M1828.26,192.45l-.4-1.13h0v0l.11,0,.09-.06,0,0h0l1,.86c-.08,0-.18.05-.17.09s0,.32-.07.37-.3-.06-.41-.14S1828.33,192.41,1828.26,192.45Z" transform="translate(0 -9)"/><path class="cls-5" d="M1828.31,192.75a.28.28,0,0,1,.31-.08,2.23,2.23,0,0,0,.35.12l.69,1s-.12.38-.32.47a.59.59,0,0,1-.56-.12A14.4,14.4,0,0,1,1828.31,192.75Z" transform="translate(0 -9)"/><path class="cls-5" d="M1828.05,192.8a.3.3,0,0,0-.32.06,1.78,1.78,0,0,1-.23.24l0,1.17a1.23,1.23,0,0,0,.57.27.48.48,0,0,0,.41-.34C1828.52,194.11,1828.05,192.8,1828.05,192.8Z" transform="translate(0 -9)"/><path class="cls-5" d="M1826.94,192.52l.35-1.15h0v0l.12,0,.12,0v0h0l.35,1.15c-.09,0-.19,0-.21,0s-.16.29-.28.29-.23-.18-.28-.29S1827,192.51,1826.94,192.52Z" transform="translate(0 -9)"/><path class="cls-5" d="M1826.8,192.8a.28.28,0,0,1,.31.06,2.27,2.27,0,0,0,.24.24l0,1.17a1.29,1.29,0,0,1-.57.27.48.48,0,0,1-.41-.34C1826.33,194.11,1826.8,192.8,1826.8,192.8Z" transform="translate(0 -9)"/><path class="cls-5" d="M1826.54,192.73a.26.26,0,0,0-.3-.07,1.92,1.92,0,0,1-.35.11l-.7,1s.12.37.33.47a.6.6,0,0,0,.56-.13C1826.15,194.06,1826.54,192.73,1826.54,192.73Z" transform="translate(0 -9)"/><path class="cls-5" d="M1825.75,192l1-.85h0l0,0,.09.06.11,0v0h0l-.4,1.14c-.07,0-.14-.1-.18-.07s-.32.18-.42.13-.1-.24-.07-.36S1825.83,192.07,1825.75,192Z" transform="translate(0 -9)"/><path class="cls-5" d="M1825.46,192.22s.22,0,.24.18a1.43,1.43,0,0,0,0,.31l-.73,1a1.45,1.45,0,0,1-.65,0,.36.36,0,0,1-.15-.46C1824.26,193.16,1825.46,192.22,1825.46,192.22Z" transform="translate(0 -9)"/><path class="cls-5" d="M1825.28,192.06a.21.21,0,0,0-.22-.19,3,3,0,0,1-.37,0l-1.23.59s-.12.38,0,.54a.57.57,0,0,0,.56.12C1824.13,193.05,1825.28,192.06,1825.28,192.06Z" transform="translate(0 -9)"/><path class="cls-5" d="M1825,191.14l1.4-.33h0l0,.09.08.08,0,0h0l-1,.82c0-.07-.06-.15-.11-.14s-.39,0-.45-.06.07-.25.17-.34S1825.07,191.2,1825,191.14Z" transform="translate(0 -9)"/><path class="cls-5" d="M1824.66,191.18s.18.1.09.25a1.37,1.37,0,0,0-.14.29l-1.24.57s-.46-.1-.58-.27.06-.4.16-.46S1824.66,191.18,1824.66,191.18Z" transform="translate(0 -9)"/><path class="cls-5" d="M1824.6,191a.18.18,0,0,0-.08-.26,3.45,3.45,0,0,1-.29-.19h-1.43s-.33.28-.33.47.29.32.41.33S1824.6,191,1824.6,191Z" transform="translate(0 -9)"/><path class="cls-5" d="M1824.93,190.06l1.41.28h0l0,.09,0,.1h0l-1.41.28c0-.07,0-.15,0-.17s-.36-.13-.36-.23.21-.19.36-.22S1824.94,190.13,1824.93,190.06Z" transform="translate(0 -9)"/><path class="cls-5" d="M1824.6,189.94a.18.18,0,0,1-.08.26,1.86,1.86,0,0,0-.29.19h-1.43s-.33-.28-.33-.47.29-.32.41-.33S1824.6,189.94,1824.6,189.94Z" transform="translate(0 -9)"/><path class="cls-5" d="M1824.68,189.74s.18-.1.09-.26a1.2,1.2,0,0,1-.14-.28l-1.25-.57s-.45.1-.57.26.06.4.15.46S1824.68,189.74,1824.68,189.74Z" transform="translate(0 -9)"/><path class="cls-5" d="M1825.52,189.08l1,.83h0l0,0-.08.07,0,.09h0l-1.4-.32c.06-.06.13-.12.09-.16s-.22-.26-.16-.34.3-.08.44-.06S1825.49,189.15,1825.52,189.08Z" transform="translate(0 -9)"/><path class="cls-5" d="M1825.3,188.85a.21.21,0,0,1-.22.19,2.33,2.33,0,0,0-.38.05l-1.22-.6s-.12-.37,0-.54.45-.16.56-.12S1825.3,188.85,1825.3,188.85Z" transform="translate(0 -9)"/><path class="cls-5" d="M1825.49,188.7s.22,0,.24-.18a1.6,1.6,0,0,1,0-.31l-.73-1a1.35,1.35,0,0,0-.65,0,.37.37,0,0,0-.15.46C1824.29,187.76,1825.49,188.7,1825.49,188.7Z" transform="translate(0 -9)"/><path class="cls-5" d="M1826.62,188.48l.4,1.14h0l0,0-.11,0-.1.07,0,0h0l-1-.86c.08,0,.18,0,.17-.09s0-.32.07-.37.31.06.42.14S1826.55,188.53,1826.62,188.48Z" transform="translate(0 -9)"/><path class="cls-5" d="M1826.58,188.19a.27.27,0,0,1-.31.07c-.19-.07-.35-.11-.35-.11l-.7-1s.12-.37.32-.46a.56.56,0,0,1,.56.12A13.76,13.76,0,0,1,1826.58,188.19Z" transform="translate(0 -9)"/><path class="cls-5" d="M1737.79,215.71c.62,0,.93.5.66.94s.67.11.58,1.77,1.54,4.09-1,4.2-1.46-3-1.46-3.94-.31-1.2.13-1.45.7-.36.49-.73S1737.22,215.89,1737.79,215.71Z" transform="translate(0 -9)"/><path class="cls-5" d="M1733.64,215.71c.62,0,.93.5.66.94s.66.11.58,1.77,1.54,4.09-1,4.2-1.46-3-1.46-3.94-.31-1.2.13-1.45.71-.36.49-.73S1733.06,215.89,1733.64,215.71Z" transform="translate(0 -9)"/><path class="cls-5" d="M1741.94,215.71c.62,0,.93.5.67.94s.66.11.57,1.77,1.55,4.09-1,4.2-1.46-3-1.46-3.94-.31-1.2.13-1.45.71-.36.49-.73S1741.37,215.89,1741.94,215.71Z" transform="translate(0 -9)"/><path class="cls-5" d="M1746.1,215.71c.61,0,.93.5.66.94s.66.11.57,1.77,1.55,4.09-1,4.2-1.46-3-1.46-3.94-.31-1.2.13-1.45.71-.36.49-.73S1745.52,215.89,1746.1,215.71Z" transform="translate(0 -9)"/><path class="cls-5" d="M1750.25,215.71c.62,0,.93.5.66.94s.67.11.58,1.77,1.54,4.09-1,4.2-1.46-3-1.46-3.94-.3-1.2.14-1.45.7-.36.48-.73S1749.67,215.89,1750.25,215.71Z" transform="translate(0 -9)"/><path class="cls-5" d="M1754.4,215.71c.62,0,.93.5.67.94s.66.11.57,1.77,1.55,4.09-1,4.2-1.46-3-1.46-3.94-.31-1.2.13-1.45.71-.36.49-.73S1753.83,215.89,1754.4,215.71Z" transform="translate(0 -9)"/><path class="cls-5" d="M1758.56,215.71c.61,0,.92.5.66.94s.66.11.57,1.77,1.55,4.09-1,4.2-1.46-3-1.46-3.94-.31-1.2.13-1.45.71-.36.49-.73S1758,215.89,1758.56,215.71Z" transform="translate(0 -9)"/><path class="cls-5" d="M1762.71,215.71c.62,0,.93.5.66.94s.66.11.58,1.77,1.54,4.09-1,4.2-1.46-3-1.46-3.94-.31-1.2.14-1.45.7-.36.48-.73S1762.13,215.89,1762.71,215.71Z" transform="translate(0 -9)"/><path class="cls-5" d="M1766.86,215.71c.62,0,.93.5.66.94s.67.11.58,1.77,1.54,4.09-1,4.2-1.45-3-1.45-3.94-.31-1.2.13-1.45.71-.36.48-.73S1766.28,215.89,1766.86,215.71Z" transform="translate(0 -9)"/><path class="cls-5" d="M1771,215.71c.62,0,.93.5.67.94s.66.11.57,1.77,1.55,4.09-1,4.2-1.46-3-1.46-3.94-.31-1.2.13-1.45.71-.36.49-.73S1770.44,215.89,1771,215.71Z" transform="translate(0 -9)"/><path class="cls-5" d="M1775.17,215.71c.62,0,.93.5.66.94s.66.11.58,1.77,1.54,4.09-1,4.2-1.46-3-1.46-3.94-.31-1.2.13-1.45.71-.36.49-.73S1774.59,215.89,1775.17,215.71Z" transform="translate(0 -9)"/><path class="cls-5" d="M1779.32,215.71c.62,0,.93.5.66.94s.67.11.58,1.77,1.54,4.09-1,4.2-1.46-3-1.46-3.94-.3-1.2.14-1.45.7-.36.48-.73S1778.74,215.89,1779.32,215.71Z" transform="translate(0 -9)"/><path class="cls-5" d="M1783.47,215.71c.62,0,.93.5.67.94s.66.11.57,1.77,1.55,4.09-1,4.2-1.46-3-1.46-3.94-.31-1.2.13-1.45.71-.36.49-.73S1782.9,215.89,1783.47,215.71Z" transform="translate(0 -9)"/><path class="cls-5" d="M1787.63,215.71c.61,0,.93.5.66.94s.66.11.57,1.77,1.55,4.09-1,4.2-1.46-3-1.46-3.94-.31-1.2.13-1.45.71-.36.49-.73S1787.05,215.89,1787.63,215.71Z" transform="translate(0 -9)"/><path class="cls-5" d="M1791.78,215.71c.62,0,.93.5.66.94s.66.11.58,1.77,1.54,4.09-1,4.2-1.46-3-1.46-3.94-.31-1.2.14-1.45.7-.36.48-.73S1791.2,215.89,1791.78,215.71Z" transform="translate(0 -9)"/><path class="cls-5" d="M1795.93,215.71c.62,0,.93.5.67.94s.66.11.57,1.77,1.55,4.09-1,4.2-1.46-3-1.46-3.94-.31-1.2.13-1.45.71-.36.49-.73S1795.36,215.89,1795.93,215.71Z" transform="translate(0 -9)"/><path class="cls-5" d="M1800.08,215.71c.62,0,.93.5.67.94s.66.11.57,1.77,1.55,4.09-1,4.2-1.46-3-1.46-3.94-.31-1.2.13-1.45.71-.36.49-.73S1799.51,215.89,1800.08,215.71Z" transform="translate(0 -9)"/><path class="cls-5" d="M1804.24,215.71c.62,0,.93.5.66.94s.66.11.57,1.77,1.55,4.09-1,4.2-1.46-3-1.46-3.94-.31-1.2.14-1.45.7-.36.48-.73S1803.66,215.89,1804.24,215.71Z" transform="translate(0 -9)"/><path class="cls-5" d="M1808.39,215.71c.62,0,.93.5.66.94s.67.11.58,1.77,1.54,4.09-1,4.2-1.46-3-1.46-3.94-.31-1.2.13-1.45.71-.36.48-.73S1807.81,215.89,1808.39,215.71Z" transform="translate(0 -9)"/><path class="cls-5" d="M1812.54,215.71c.62,0,.93.5.67.94s.66.11.57,1.77,1.55,4.09-1,4.2-1.46-3-1.46-3.94-.31-1.2.13-1.45.71-.36.49-.73S1812,215.89,1812.54,215.71Z" transform="translate(0 -9)"/><path class="cls-5" d="M1816.7,215.71c.61,0,.92.5.66.94s.66.11.57,1.77,1.55,4.09-1,4.2-1.46-3-1.46-3.94-.31-1.2.13-1.45.71-.36.49-.73S1816.12,215.89,1816.7,215.71Z" transform="translate(0 -9)"/><path class="cls-5" d="M1820.85,215.71c.62,0,.93.5.66.94s.67.11.58,1.77,1.54,4.09-1,4.2-1.46-3-1.46-3.94-.3-1.2.14-1.45.7-.36.48-.73S1820.27,215.89,1820.85,215.71Z" transform="translate(0 -9)"/><path class="cls-5" d="M1825,215.71c.62,0,.93.5.66.94s.67.11.58,1.77,1.55,4.09-1,4.2-1.46-3-1.46-3.94-.31-1.2.13-1.45.71-.36.49-.73S1824.43,215.89,1825,215.71Z" transform="translate(0 -9)"/><path class="cls-5" d="M1829.16,215.71c.61,0,.92.5.66.94s.66.11.57,1.77,1.55,4.09-1,4.2-1.46-3-1.46-3.94-.31-1.2.13-1.45.71-.36.49-.73S1828.58,215.89,1829.16,215.71Z" transform="translate(0 -9)"/><path class="cls-5" d="M1833.31,215.71c.62,0,.93.5.66.94s.66.11.58,1.77,1.54,4.09-1,4.2-1.46-3-1.46-3.94-.31-1.2.14-1.45.7-.36.48-.73S1832.73,215.89,1833.31,215.71Z" transform="translate(0 -9)"/><path class="cls-5" d="M1837.46,215.71c.62,0,.93.5.66.94s.67.11.58,1.77,1.54,4.09-1,4.2-1.46-3-1.46-3.94-.31-1.2.13-1.45.71-.36.49-.73S1836.89,215.89,1837.46,215.71Z" transform="translate(0 -9)"/><path class="cls-5" d="M1841.61,215.71c.62,0,.93.5.67.94s.66.11.57,1.77,1.55,4.09-1,4.2-1.46-3-1.46-3.94-.31-1.2.13-1.45.71-.36.49-.73S1841,215.89,1841.61,215.71Z" transform="translate(0 -9)"/><path class="cls-5" d="M1845.77,215.71c.62,0,.93.5.66.94s.66.11.58,1.77,1.54,4.09-1,4.2-1.46-3-1.46-3.94-.31-1.2.13-1.45.71-.36.49-.73S1845.19,215.89,1845.77,215.71Z" transform="translate(0 -9)"/><path class="cls-5" d="M1733.64,239.26c.62,0,.93.5.66.94s.66.11.58,1.77,1.54,4.09-1,4.2-1.46-3-1.46-3.94-.31-1.2.13-1.45.71-.36.49-.73S1733.06,239.44,1733.64,239.26Z" transform="translate(0 -9)"/><path class="cls-5" d="M1769.25,239.26c.62,0,.93.5.67.94s.66.11.57,1.77,1.55,4.09-1,4.2-1.46-3-1.46-3.94-.31-1.2.13-1.45.71-.36.49-.73S1768.68,239.44,1769.25,239.26Z" transform="translate(0 -9)"/><path class="cls-5" d="M1810.78,239.26c.62,0,.93.5.67.94s.66.11.57,1.77,1.55,4.09-1,4.2-1.46-3-1.46-3.94-.31-1.2.13-1.45.71-.36.49-.73S1810.21,239.44,1810.78,239.26Z" transform="translate(0 -9)"/><path class="cls-5" d="M1845.77,239.26c.62,0,.93.5.66.94s.66.11.58,1.77,1.54,4.09-1,4.2-1.46-3-1.46-3.94-.31-1.2.13-1.45.71-.36.49-.73S1845.19,239.44,1845.77,239.26Z" transform="translate(0 -9)"/><path class="cls-5" d="M1765.86,262.57v-17c0-5.19-4-12.31-12.78-16.55-9.33,4.5-14.59,11.57-14.59,16.55v17Z" transform="translate(0 -9)"/><path class="cls-3" d="M1752.1,262.57V250.24a2.26,2.26,0,0,0-2.42-2h0a2.26,2.26,0,0,0-2.42,2v12.33Z" transform="translate(0 -9)"/><path class="cls-3" d="M1760,262.57V250.24a2.25,2.25,0,0,0-2.41-2h0a2.26,2.26,0,0,0-2.42,2v12.33Z" transform="translate(0 -9)"/><path class="cls-5" d="M1814.08,262.57v-17c0-5.19,4.05-12.31,12.78-16.55,9.33,4.5,14.6,11.57,14.6,16.55v17Z" transform="translate(0 -9)"/><path class="cls-3" d="M1827.85,262.57V250.24a2.25,2.25,0,0,1,2.41-2h0a2.26,2.26,0,0,1,2.42,2v12.33Z" transform="translate(0 -9)"/><path class="cls-3" d="M1820,262.57V250.24a2.26,2.26,0,0,1,2.42-2h0a2.25,2.25,0,0,1,2.41,2v12.33Z" transform="translate(0 -9)"/><path class="cls-3" d="M1792.88,262.57V249.09c0-1.23,1.28-2.23,2.84-2.23h0c1.57,0,2.85,1,2.85,2.23v13.48Z" transform="translate(0 -9)"/><path class="cls-3" d="M1783.62,262.57V249.09c0-1.23,1.28-2.23,2.85-2.23h0c1.56,0,2.85,1,2.85,2.23v13.48Z" transform="translate(0 -9)"/><rect class="cls-4" x="1838.53" y="96.35" width="6.05" height="6.49"/><polygon class="cls-3" points="1841.56 90.2 1838.53 96.35 1844.58 96.35 1841.56 90.2"/><path class="cls-3" d="M1775,262.57V244c0-5.67,4.77-13.45,15.06-18.09,11,4.93,17.19,12.65,17.19,18.09v18.58Z" transform="translate(0 -9)"/><rect class="cls-4" x="1276.09" y="252.61" width="643.91" height="37.9"/><path class="cls-4" d="M1663.66,205.69h11c-.32-1.25-.63-2.49-.94-3.73,0,0,0-.06,0-.09-.75-3.1-1.44-6.2-2.07-9.45,0,0,0,0,0-.07h0c-.6-3.09-1.14-6.32-1.64-9.82a.28.28,0,0,0,0-.09c-.1-.71-.2-1.43-.29-2.16h-6V9h0a1.41,1.41,0,0,1,1.23.84,3.3,3.3,0,0,1,.35,1.54h0c0,4.08.71,6.89,1.76,8.75a5.33,5.33,0,0,0,4.63,3.1.56.56,0,0,1,.58.54v2.51h0a.57.57,0,0,1-.58.55h-1.87V30.3c1.23.36,2,.88,2,1.57v.49h0v1.76a5.84,5.84,0,0,1-3,5.18l-.15.77c.1,1.91.19,3.79.29,5.64h0a.2.2,0,0,1,0,.07h0l.21,3.95h0v0h0c.1,1.85.2,3.68.3,5.48a.2.2,0,0,1,0,.07v0c.11,1.91.21,3.8.32,5.66,0,0,0,0,0,.06h0c.1,1.82.21,3.63.31,5.4a.71.71,0,0,1,0,.2c.1,1.83.21,3.64.32,5.41a.17.17,0,0,1,0,.07h0c.13,2.05.25,4.06.38,6h0a.13.13,0,0,1,0,.06h0q.2,3.18.41,6.24h0a.17.17,0,0,1,0,.07h0c.11,1.66.22,3.29.34,4.89v.08h0c.11,1.59.23,3.15.34,4.69h0v.11a.65.65,0,0,1,0,.24c.11,1.56.23,3.1.34,4.61h0v0h0q.26,3.39.53,6.62v.07c.19,2.32.39,4.59.58,6.79h0v0h0q.26,2.88.51,5.62a.52.52,0,0,1,.23.43.51.51,0,0,1-.15.36c.19,2,.39,4,.59,6h0v.06c.29,2.83.59,5.54.89,8.15h0v.05h0q.54,4.57,1.09,8.73h0q.68,5,1.38,9.48h0a.17.17,0,0,1,0,.07h0q.58,3.59,1.18,6.85h4.27a.57.57,0,0,1,.58.55h0v1.1h0l-2.67,8.44a133.47,133.47,0,0,0,14.08,36.58h3.09a.56.56,0,0,1,.58.54h0v6.11h0v6l3.88,6,.06.08,1.21,1.88a.53.53,0,0,1,.37.5v.07l7,10.86a.56.56,0,0,0,0,.08l5.35,8.3,0,.06,5.91,9.15a.51.51,0,0,1,.1.32c0,.11,0,1.37-.1,2.87v7.86h-59.24V255.13h32.13c-.22-.87-.48-1.71-.77-2.52h0v0a27,27,0,0,0-11.78-14h0c-.78-.47-1.57-.9-2.39-1.3l-1.11-.52h0a39.71,39.71,0,0,0-16-3.3Zm-11,0h11v27.74h-.09a39.8,39.8,0,0,0-16.09,3.3h0c-.37.16-.74.34-1.11.52-.81.4-1.61.83-2.39,1.3h0a27,27,0,0,0-11.79,14v0h0c-.29.81-.55,1.65-.77,2.52h32.31V266.4h-59.34V255.67a.52.52,0,0,1,.11-.32l5.9-9.14,0-.08,5.35-8.28.06-.09,7.2-11.16a.22.22,0,0,1,0-.08l1.33-2.07.06-.08,3.88-6v-6h0v-6.11h0a.56.56,0,0,1,.58-.54H1632c.75-1.38,1.48-2.74,2.19-4.1l0,0h0a128.42,128.42,0,0,0,10.73-27.83s0-.06,0-.08c.38-1.46.75-3,1.12-4.52l-2.68-8.44h0v-1.1h0a.57.57,0,0,1,.58-.55h4.27c1.94-10.54,3.64-23.37,5.2-39.72a.52.52,0,0,1,0-.11.42.42,0,0,1,.05-.2c1.36-14.38,2.63-31.48,3.86-52.1v-.09q.48-8,1-16.72v0a.3.3,0,0,1,0-.1q.24-4.71.5-9.64l-.15-.74a5.85,5.85,0,0,1-3-5.2V32.38h0v-.49c0-.69.78-1.21,2-1.57V26.85h-1.87a.57.57,0,0,1-.58-.55V23.78a.56.56,0,0,1,.58-.54,5.36,5.36,0,0,0,4.63-3.1c1.05-1.86,1.75-4.67,1.75-8.75h0a3.3,3.3,0,0,1,.36-1.54,1.41,1.41,0,0,1,1.22-.84V180.27h-6.05c-.09.73-.19,1.46-.29,2.18v.05h0c-.5,3.51-1,6.74-1.64,9.84h0v0h0c-.63,3.27-1.32,6.37-2.07,9.47h0s0,.05,0,.07C1653.27,203.2,1653,204.44,1652.63,205.69Z" transform="translate(0 -9)"/><path class="cls-3" d="M1337.82,160.29l40.07-9.37,16.73,35.54-.71,5.4-3,.66,2.34,24.28,2.24,2.74-1.84,1.34,4.66,48.29h-60.5v-7.78l5.9-.08-.88-47-1.94-1.64v-1a14.31,14.31,0,0,0-3.09,2.06Zm-61.73,108.88,4.32-48.23-2-2.54,2.27-.25,1.83-20.37-1.81-1.17,1.95-.42.39-4.32-4.63-1.15-2.11-4.42,7.37-1.52.59-6.66h0l-3.21-2.31,3.5-.83.2-2.28,53.1-12.41v53.4a17.09,17.09,0,0,0-5.73,10.79l2,.84-.37,1-1.79,1.21v33.94l5.9-.08v7.78Z" transform="translate(0 -9)"/><path class="cls-3" d="M1526.35,270.49h37.37v-32.6h-18V221.12h-2.59c-.29-11.39-5.72-20.82-12.93-23.32V180.88h-3.81v89.61Zm0-91.19v-6.12h0c2.13,0,3.86,2.58,3.86,5.75v.37Zm0-7.51v-4.54h.43v1.37h1.3v.76h-1.3v2.41Zm-95.77,98.7h95.77V180.88h-3.77v16.9c-6.61,2.26-11.73,10.35-12.79,20.44V198.1h3.11v-4.7h-3.46c-.54-21.09-10.6-38.55-24-43.15V119h-14v31.29c-13.37,4.59-23.42,22.06-24,43.15H1444v4.7h3.1v20.12c-1.05-10.09-6.17-18.18-12.79-20.44v-16.9h-3.76v89.61Zm95.77-103.24v4.54H1526v-2.41h-1.29v-.76H1526v-1.37Zm0,5.93v6.12h-3.86c0-.12,0-.24,0-.37,0-3.17,1.73-5.75,3.87-5.75Zm-95.77,6.12v-6.12c2.13,0,3.86,2.58,3.86,5.75v.37Zm0-7.51v-4.54h.38v1.37h1.3v.76H1431v2.41Zm44.73-75.51v1.4h2.4v4.46h1.51V97.68h2.4v-1.4h-2.4V93.73h-1.51v2.55Zm3.15,8.43c-4,0-7.15,4.77-7.15,10.65,0,.23,0,.45,0,.68h14.28c0-.23,0-.45,0-.68C1485.62,109.48,1482.41,104.71,1478.46,104.71Zm-85.25,165.78h37.37V180.88h-3.82V197.8c-7.21,2.5-12.63,11.93-12.92,23.32h-2.59v16.77h-18v32.6Zm37.37-103.24v4.54h-.44v-2.41h-1.29v-.76h1.29v-1.37Zm0,5.93v6.12h-3.86c0-.12,0-.24,0-.37C1426.71,175.76,1428.44,173.18,1430.58,173.18Z" transform="translate(0 -9)"/><polygon class="cls-3" points="1562.33 172.14 1569.16 169.42 1580.74 164.81 1580.74 164.82 1580.74 164.81 1598.08 169.42 1608.3 172.14 1608.3 259.67 1580.74 259.67 1580.74 259.66 1580.74 259.67 1562.33 259.67 1562.33 172.14"/><polygon class="cls-3" points="1874.04 172.14 1880.86 169.42 1892.45 164.81 1892.45 164.82 1892.45 164.81 1909.79 169.42 1920 172.14 1920 259.67 1892.45 259.67 1892.45 259.66 1892.45 259.67 1874.04 259.67 1874.04 172.14"/><polygon class="cls-3" points="1853.83 198.94 1858.56 197.06 1866.6 193.86 1866.6 193.87 1866.6 193.86 1878.62 197.06 1885.71 198.94 1885.71 259.67 1866.6 259.67 1866.6 259.66 1866.6 259.67 1853.83 259.67 1853.83 198.94"/></svg>